<?xml version="1.0" standalone="no"?>
<!DOCTYPE svg PUBLIC "-//W3C//DTD SVG 1.1//EN" "http://www.w3.org/Graphics/SVG/1.1/DTD/svg11.dtd" >
<svg>
<metadata>
Created by FontForge 20120731 at Tue May 10 00:22:03 2016
 By ,,,
Copyright (c) 2013 by Total Identity. All rights reserved.
</metadata>
<defs>
<font id="LGSmart-Bold" horiz-adv-x="520" >
  <font-face 
    font-family="LG Smart"
    font-weight="700"
    font-style="italic"
    font-stretch="normal"
    units-per-em="1000"
    panose-1="2 11 8 2 4 4 2 6 2 3"
    ascent="716"
    descent="-284"
    x-height="423"
    cap-height="608"
    bbox="-58 -293 903 856"
    underline-thickness="80"
    underline-position="-140"
    slope="-12"
    unicode-range="U+000D-FB02"
  />
<missing-glyph horiz-adv-x="503" 
d="M435 608v-608h-367v608h367zM389 567h-275v-526h275v526zM229 193v23q0 34 12.5 59.5t27.5 46.5t27.5 40t12.5 42q0 25 -16.5 41t-48.5 16q-22 0 -40 -8t-29 -16l-16 30q18 14 40 22t45 8q49 0 77 -25.5t28 -66.5q0 -27 -12.5 -48.5t-27.5 -42t-27.5 -44t-12.5 -54.5v-23
h-40zM272 111h-45v38h45v-38z" />
    <glyph glyph-name="fi" unicode="fi" horiz-adv-x="524" 
d="M77 335h-54v88h54v41q0 95 59 136.5t164 41.5q21 0 45.5 -1.5t48.5 -4t45.5 -6t36.5 -7.5v-111h-121v48q-27 4 -46 4q-31 0 -52.5 -8t-35 -21t-19.5 -30t-6 -35v-47h279v-423h-120v335h-159v-335h-119v335z" />
    <glyph glyph-name="fl" unicode="fl" horiz-adv-x="534" 
d="M77 335h-54v88h54v45q0 49 16 82.5t45 53.5t71 29t95 9q21 0 45.5 -1.5t48 -4t43.5 -6t34 -7.5v-485q0 -19 2.5 -30.5t8 -17.5t15 -8t23.5 -2v-83q-5 -1 -10 -1q-5 -1 -11 -1h-10q-39 0 -65.5 9.5t-42 27.5t-22.5 44t-7 59v423q-13 2 -25 3q-15 1 -25 1q-31 0 -52 -7.5
t-34 -20.5t-18.5 -29t-5.5 -33v-49h105v-88h-105v-335h-119v335z" />
    <glyph glyph-name=".notdef" horiz-adv-x="503" 
d="M435 608v-608h-367v608h367zM389 567h-275v-526h275v526zM229 193v23q0 34 12.5 59.5t27.5 46.5t27.5 40t12.5 42q0 25 -16.5 41t-48.5 16q-22 0 -40 -8t-29 -16l-16 30q18 14 40 22t45 8q49 0 77 -25.5t28 -66.5q0 -27 -12.5 -48.5t-27.5 -42t-27.5 -44t-12.5 -54.5v-23
h-40zM272 111h-45v38h45v-38z" />
    <glyph glyph-name="NULL" horiz-adv-x="0" 
 />
    <glyph glyph-name="NULL" horiz-adv-x="0" 
 />
    <glyph glyph-name="nonmarkingreturn" unicode="&#xd;" horiz-adv-x="205" 
 />
    <glyph glyph-name="space" unicode=" " horiz-adv-x="216" 
 />
    <glyph glyph-name="florin" unicode="&#x192;" horiz-adv-x="426" 
d="M250 -41q0 -48 -13.5 -80.5t-37.5 -52.5t-57.5 -28.5t-73.5 -8.5q-17 0 -34.5 2t-33.5 5l12 86q10 -2 19 -3.5t20 -1.5q43 0 61 19t18 57v313h-73v84h73v98q0 48 13.5 80.5t37.5 52.5t57.5 28.5t73.5 8.5q28 0 55.5 -4t48.5 -13l-25 -84q-15 8 -30 10.5t-32 2.5
q-44 0 -61.5 -18.5t-17.5 -57.5v-104h129v-84h-129v-307z" />
    <glyph glyph-name="cent" unicode="&#xa2;" horiz-adv-x="429" 
d="M277 -85h-67v76q-103 5 -146.5 59.5t-43.5 154.5q0 104 48.5 159.5t141.5 65.5v78h67v-76q41 -5 75 -20t52 -36l-67 -64q-26 29 -60 35v-273q26 3 48.5 10.5t45.5 19.5l20 -74q-19 -13 -47.5 -23t-66.5 -15v-77zM141 205q0 -53 15.5 -85.5t53.5 -42.5v267
q-35 -11 -52 -44t-17 -95z" />
    <glyph glyph-name="yen" unicode="&#xa5;" horiz-adv-x="557" 
d="M502 160h-163v-160h-122v160h-162v67h162v29q-8 12 -17 25h-145v67h104q-25 42 -52 85q-28 47 -55.5 92t-51.5 83h140l135 -243h8l134 243h140l-161 -260h106v-67h-148l-15 -25v-29h163v-67z" />
    <glyph glyph-name="won" unicode="&#x20a9;" horiz-adv-x="885" 
d="M23 264h111l-16 74h-95v67h80l-43 203h118l39 -203h120l34 203h150l36 -203h120l38 203h112l-43 -203h80v-67h-94l-15 -74h109v-67h-123l-41 -197h-158l-36 197h-122l-35 -197h-158l-43 197h-125v67zM396 264h97l-13 74h-71zM582 264h69l14 74h-96zM244 264h69l12 74h-95
zM440 514l-19 -109h47l-20 109h-8zM612 95h8l19 102h-45zM277 95h8l17 102h-45z" />
    <glyph glyph-name="at" unicode="@" horiz-adv-x="934" 
d="M521 433q19 0 40 -1.5t41.5 -5t39.5 -9t33 -12.5l-46 -232q-2 -9 -3 -18.5t-1 -18.5q0 -20 9.5 -33.5t32.5 -13.5q31 0 54 15t38 41t22.5 61.5t7.5 77.5q0 70 -16.5 116.5t-49.5 74t-82.5 39t-116.5 11.5q-181 0 -277 -99.5t-96 -293.5q0 -69 16.5 -116.5t49 -76.5
t79 -42t106.5 -13q47 0 85.5 6t85.5 18l26 -88q-45 -14 -94.5 -22.5t-104.5 -8.5q-174 0 -268.5 82.5t-94.5 260.5q0 120 35 211t99.5 152t155.5 92t203 31q90 0 159.5 -18.5t117 -58.5t72 -104t24.5 -155q0 -58 -15 -110t-45.5 -91.5t-76.5 -62.5t-108 -23q-57 0 -94 29
q-17 13 -28 32l-7 -8q-17 -17 -39 -30t-48.5 -20.5t-59.5 -7.5q-74 0 -109.5 43.5t-35.5 114.5q0 141 73 213t211 72zM518 350q-84 0 -121.5 -50t-37.5 -138q0 -44 15.5 -64.5t38.5 -20.5q29 0 57 19q18 13 33 36l46 216q-15 2 -31 2z" />
    <glyph glyph-name="numbersign" unicode="#" horiz-adv-x="500" 
d="M440 288h-68v-85h68v-80h-68v-58h-85v58h-75v-58h-85v58h-68v80h68v85h-68v80h68v58h85v-58h75v58h85v-58h68v-80zM212 203h75v85h-75v-85z" />
    <glyph glyph-name="asciicircum" unicode="^" horiz-adv-x="428" 
d="M302 608l104 -323h-102l-85 242h-8l-80 -242h-108l105 323h174z" />
    <glyph glyph-name="ampersand" unicode="&#x26;" horiz-adv-x="570" 
d="M570 0h-142l-42 48q-21 -16 -44 -29q-53 -29 -121 -29q-44 0 -80 8.5t-62.5 28t-41 52t-14.5 81.5q0 68 43 116q28 31 76 56q-13 17 -23 35q-12 21 -19.5 43.5t-7.5 45.5q0 38 14 68t38.5 51t58.5 32t74 11q37 0 69.5 -8t55.5 -25.5t36.5 -45t13.5 -66.5q0 -42 -17 -72
t-44.5 -52.5t-63.5 -39.5q-10 -5 -20 -9l84 -96q12 20 23 43q20 43 31 82l104 -22q-19 -54 -47 -111q-19 -37 -43 -70zM181 238q-15 -13 -25 -30.5t-10 -39.5q0 -43 23.5 -63.5t59.5 -20.5q40 0 75 23l18 14l-117 135q-13 -8 -24 -18zM254 376q24 10 41.5 22t27.5 27.5
t10 37.5q0 30 -14 46.5t-40 16.5q-31 0 -49 -16.5t-18 -51.5t19 -65q6 -10 14 -21q5 2 9 4z" />
    <glyph glyph-name="asterisk" unicode="*" horiz-adv-x="430" 
d="M275 231l-60 116l-60 -116l-105 70l96 96l-126 21l36 120l117 -60l-20 130h124l-20 -129l117 59l36 -120l-128 -21l97 -96z" />
    <glyph glyph-name="currency" unicode="&#xa4;" horiz-adv-x="457" 
d="M16 105l65 65q-3 6 -6 13q-11 29 -11 63t12 63l5 11l-65 66l71 73l68 -69q5 2 9 4q31 12 67 12t65 -13q2 -1 5 -2l67 68l73 -73l-67 -66q3 -6 5 -13q12 -29 12 -62t-13 -62q-2 -6 -5 -11l68 -67l-73 -71l-68 68q-4 -2 -9 -4q-30 -12 -66 -12t-66 12q-2 1 -5 2l-67 -66z
M225 179q29 0 47 18.5t18 49.5q0 29 -16.5 47t-42.5 18q-29 0 -47 -18t-18 -49q0 -29 16.5 -47.5t42.5 -18.5z" />
    <glyph glyph-name="multiply" unicode="&#xd7;" 
d="M395 35l-136 135l-135 -135l-75 75l135 135l-135 136l75 75l135 -136l136 136l75 -75l-136 -136l136 -135z" />
    <glyph glyph-name="paragraph" unicode="&#xb6;" horiz-adv-x="567" 
d="M213 205q-55 0 -90.5 15t-55.5 41.5t-28 62t-8 77.5q0 50 9.5 88.5t33 65t62.5 40t98 13.5h268v-803l-82 -11v720h-73v-709l-82 -11v411h-52z" />
    <glyph glyph-name="section" unicode="&#xa7;" horiz-adv-x="487" 
d="M274 4q-27 11 -65 24.5t-72 29.5q-21 10 -39 22t-31.5 29t-21 41t-7.5 57q0 75 57 113q9 6 19 11q-24 16 -39 34q-26 32 -26 94q0 74 54 116.5t157 42.5q43 0 93.5 -9.5t89.5 -30.5l-38 -84q-26 15 -64 25t-80 10q-54 0 -77.5 -16.5t-23.5 -44.5t17.5 -42t35.5 -22
q28 -12 65.5 -25.5t71.5 -29.5q21 -10 39 -22t31.5 -29.5t21.5 -41t8 -56.5q0 -75 -57 -113q-10 -7 -20 -12q24 -15 39 -34q27 -31 27 -93q0 -74 -54.5 -116.5t-156.5 -42.5q-44 0 -94.5 9.5t-89.5 30.5l38 84q26 -15 64.5 -25t80.5 -10q54 0 77 16.5t23 44.5t-17.5 42.5
t-35.5 22.5zM297 254q-33 15 -70 27l-22 8q-21 -6 -34 -18q-24 -22 -24 -49q0 -28 13.5 -44.5t29.5 -24.5q33 -15 70 -28q10 -3 21 -7q22 6 34 17q25 23 25 50q0 28 -13.5 44.5t-29.5 24.5z" />
    <glyph glyph-name="dagger" unicode="&#x2020;" horiz-adv-x="531" 
d="M497 298l-191 26l30 -204l-47 -325h-48l-45 325l28 204l-190 -26v133l190 -27l-28 204h140l-30 -204l191 27v-133z" />
    <glyph glyph-name="daggerdbl" unicode="&#x2021;" horiz-adv-x="531" 
d="M497 -28l-191 27l30 -204h-140l28 204l-190 -27v133l190 -27l-17 123l17 123l-190 -26v133l190 -27l-28 204h140l-30 -204l191 27v-133l-191 26l18 -123l-18 -123l191 27v-133z" />
    <glyph glyph-name="less" unicode="&#x3c;" 
d="M343 -11l-256 256l256 256l74 -67l-184 -184l186 -186z" />
    <glyph glyph-name="equal" unicode="=" 
d="M463 124h-407v94h407v-94zM463 272h-407v94h407v-94z" />
    <glyph glyph-name="greater" unicode="&#x3e;" 
d="M159.021 500.999l255.984 -255.984l-255.984 -255.984l-73.9951 66.9961l183.989 183.989l-185.989 185.988z" />
    <glyph glyph-name="plus" unicode="+" 
d="M310 197v-150h-101v150h-150v95h150v151h101v-151h151v-95h-151z" />
    <glyph glyph-name="minus" unicode="&#x2212;" 
d="M463 198h-407v94h407v-94z" />
    <glyph glyph-name="percent" unicode="%" horiz-adv-x="640" 
d="M190 455q0 46 -10 72t-36 26t-37 -26t-11 -72t11 -71t37 -25t36 25t10 71zM558 152q0 46 -10 72t-36 26t-37 -26t-11 -72t11 -71t37 -25t36 25t10 71zM149 -30h-104l441 668h104zM512 -10q-68 0 -99.5 44.5t-31.5 117.5q0 37 7.5 67t23.5 51.5t41 33t59 11.5
q66 0 97.5 -44.5t31.5 -118.5q0 -73 -31.5 -117.5t-97.5 -44.5zM144 293q-68 0 -99.5 44.5t-31.5 117.5q0 37 7.5 67t23.5 51.5t41 33t59 11.5q66 0 97.5 -44.5t31.5 -118.5q0 -73 -31.5 -117.5t-97.5 -44.5z" />
    <glyph glyph-name="divide" unicode="&#xf7;" horiz-adv-x="500" 
d="M52 292h395v-94h-395v94zM310 346h-120v113h120v-113zM190 144h120v-112h-120v112z" />
    <glyph glyph-name="degree" unicode="&#xb0;" horiz-adv-x="325" 
d="M155 333q-38 0 -65.5 11t-45 30t-26 45t-8.5 57q0 65 42.5 103.5t116.5 38.5q38 0 65.5 -11t45.5 -30.5t26.5 -45.5t8.5 -57q0 -63 -43 -102t-117 -39zM156 416q36 0 52 16t16 45q0 23 -12.5 40.5t-42.5 17.5q-36 0 -52 -17t-16 -44q0 -23 12.5 -40.5t42.5 -17.5z" />
    <glyph glyph-name="asciitilde" unicode="~" horiz-adv-x="442" 
d="M21 253q23 23 57.5 38t73.5 15q22 0 40 -4.5t34 -10.5t31.5 -10.5t33.5 -4.5q26 0 48.5 9t42.5 22l38 -70q-23 -23 -57.5 -38.5t-74.5 -15.5q-23 0 -40.5 5t-33 10.5t-31 10.5t-33.5 5q-26 0 -49 -9t-43 -23z" />
    <glyph glyph-name="underscore" unicode="_" horiz-adv-x="394" 
d="M31 -40h332v-81h-332v81z" />
    <glyph glyph-name="hyphen" unicode="-" horiz-adv-x="338" 
d="M293 166h-248v101h248v-101z" />
    <glyph glyph-name="endash" unicode="&#x2013;" horiz-adv-x="500" 
d="M453 178h-407v94h407v-94z" />
    <glyph glyph-name="emdash" unicode="&#x2014;" horiz-adv-x="750" 
d="M750 178h-751v94h751v-94z" />
    <glyph glyph-name="bracketleft" unicode="[" horiz-adv-x="324" 
d="M287 -184h-251v816h251v-95h-131v-627h131v-94z" />
    <glyph glyph-name="parenleft" unicode="(" horiz-adv-x="334" 
d="M49 245q0 70 11.5 126.5t34 106.5t57 96t79.5 94l73 -60q-36 -41 -62 -80.5t-42.5 -82.5t-24.5 -92t-8 -108t8 -109t24.5 -94.5t42.5 -85t62 -80.5l-73 -60q-45 48 -79.5 95t-57 98t-34 108.5t-11.5 127.5z" />
    <glyph glyph-name="braceleft" unicode="{" horiz-adv-x="338" 
d="M246 -171q-34 0 -63.5 3.5t-51.5 17t-35 40t-13 73.5v149q0 39 -19.5 59t-48.5 24v98q29 4 48.5 23t19.5 60v157q0 42 12.5 68t34.5 40.5t51.5 19.5t64.5 5h69v-95h-13q-53 0 -75.5 -17t-22.5 -63v-137q0 -50 -18.5 -73.5t-58.5 -30.5v-9q37 -10 57 -32t20 -72v-139
q0 -44 23.5 -59.5t74.5 -15.5h13v-94h-69z" />
    <glyph glyph-name="guillemotleft" unicode="&#xab;" horiz-adv-x="495" 
d="M374 30l-158 181l159 182l78 -62l-104 -119l105 -116zM246 331l-99 -119l98 -116l-79 -66l-151 181l152 182z" />
    <glyph glyph-name="guilsinglleft" unicode="&#x2039;" horiz-adv-x="287" 
d="M246 331l-99 -119l98 -116l-79 -66l-151 181l152 182z" />
    <glyph glyph-name="slash" unicode="/" horiz-adv-x="357" 
d="M243 638h114l-243 -668h-114z" />
    <glyph glyph-name="bar" unicode="|" horiz-adv-x="212" 
d="M152 -173h-92v837h92v-837z" />
    <glyph glyph-name="brokenbar" unicode="&#xa6;" horiz-adv-x="212" 
d="M152 336h-92v328h92v-328zM152 -173h-92v328h92v-328z" />
    <glyph glyph-name="backslash" unicode="\" horiz-adv-x="357" 
d="M357 -30h-114l-243 668h114z" />
    <glyph glyph-name="guilsinglright" unicode="&#x203a;" horiz-adv-x="287" 
d="M41.0146 92.0205l98.9941 118.992l-97.9941 115.993l78.9951 65.9961l150.991 -180.989l-151.991 -181.988z" />
    <glyph glyph-name="guillemotright" unicode="&#xbb;" horiz-adv-x="495" 
d="M121.022 393.002l157.991 -180.989l-158.991 -181.988l-77.9951 61.9961l103.994 118.992l-104.994 115.993zM249.015 92.0205l98.9941 118.992l-97.9941 115.993l78.9951 65.9961l150.991 -180.989l-151.991 -181.988z" />
    <glyph glyph-name="braceright" unicode="}" horiz-adv-x="338" 
d="M23 -171v94h13q51 0 74.5 15.5t23.5 59.5v139q0 50 19.5 72t57.5 32v9q-40 7 -58.5 30.5t-18.5 73.5v137q0 46 -22.5 63t-75.5 17h-13v95h69q34 0 64 -5t52 -19.5t34.5 -40.5t12.5 -68v-157q0 -41 19.5 -60t48.5 -23v-98q-29 -4 -48.5 -24t-19.5 -59v-149
q0 -47 -13 -73.5t-35 -40t-51.5 -17t-63.5 -3.5h-69z" />
    <glyph glyph-name="parenright" unicode=")" horiz-adv-x="334" 
d="M285 245q0 -70 -11.5 -127.5t-34 -108.5t-57 -98t-79.5 -95l-73 60q36 40 62 80.5t42.5 85t24.5 94.5t8 109t-8 108t-24.5 92t-42.5 82.5t-62 80.5l73 60q45 -48 79.5 -94t57 -96t34 -106.5t11.5 -126.5z" />
    <glyph glyph-name="bracketright" unicode="]" horiz-adv-x="324" 
d="M37 -90h131v627h-131v95h251v-816h-251v94z" />
    <glyph glyph-name="period" unicode="." horiz-adv-x="236" 
d="M178 0h-121v113h121v-113z" />
    <glyph glyph-name="comma" unicode="," horiz-adv-x="236" 
d="M88 -149l-73 48q18 28 28 55t14.5 53t5.5 52.5t1 53.5h110q0 -46 -5.5 -82.5t-16 -67.5t-26.5 -58t-38 -54z" />
    <glyph glyph-name="exclam" unicode="!" horiz-adv-x="255" 
d="M175 174h-96l-19 434h135zM67 113h121v-113h-121v113z" />
    <glyph glyph-name="question" unicode="?" horiz-adv-x="414" 
d="M237 0h-121v113h121v-113zM121 174v57q0 48 21 79t46.5 54.5t46.5 44.5t21 48q0 29 -20 45t-64 16q-32 0 -64.5 -10.5t-52.5 -23.5l-32 89q15 9 35 17t43 14.5t48 10t49 3.5q39 0 73 -7.5t59 -24.5t39.5 -44t14.5 -67q0 -37 -11.5 -63t-28.5 -46t-37 -36t-37 -33.5
t-28.5 -38t-11.5 -50.5v-34h-109z" />
    <glyph glyph-name="exclamdown" unicode="&#xa1;" horiz-adv-x="255" 
d="M188 310h-121v113h121v-113zM79 249h96l20 -434h-135z" />
    <glyph glyph-name="questiondown" unicode="&#xbf;" horiz-adv-x="414" 
d="M177.015 423h120.992v-112.993h-120.992v112.993zM293.008 249.011v-56.9971q0 -47.9971 -20.999 -78.9951t-46.4971 -54.4961q-25.499 -23.499 -46.4971 -44.4971q-20.999 -20.999 -20.999 -47.9971q0 -28.999 19.999 -44.998t63.9961 -15.999q31.998 0 64.4961 10.5
q32.498 10.499 52.4961 23.498l31.998 -88.9941q-14.999 -9 -34.9971 -16.999q-19.999 -8 -42.998 -14.499q-22.998 -6.5 -47.9971 -10q-24.998 -3.49902 -48.9971 -3.49902q-38.9971 0 -72.9951 7.49902q-33.998 7.5 -58.9961 24.499q-24.999 16.999 -39.498 43.9971
t-14.499 66.9961q0 36.9971 11.499 62.9961q11.5 25.998 28.499 45.9971q16.998 19.999 36.9971 35.998t36.998 33.498q16.999 17.498 28.498 37.9971t11.499 50.4971v33.998h108.994z" />
    <glyph glyph-name="colon" unicode=":" horiz-adv-x="236" 
d="M177 310h-121v113h121v-113zM177 0h-121v113h121v-113z" />
    <glyph glyph-name="semicolon" unicode=";" horiz-adv-x="236" 
d="M88 -149l-73 48q18 28 28 55t14.5 53t5.5 52.5t1 53.5h110q0 -46 -5.5 -82.5t-16 -67.5t-26.5 -58t-38 -54zM182 310h-121v113h121v-113z" />
    <glyph glyph-name="ellipsis" unicode="&#x2026;" horiz-adv-x="681" 
d="M57 113h121v-113h-121v113zM281 113h121v-113h-121v113zM505 113h121v-113h-121v113z" />
    <glyph glyph-name="periodcentered" unicode="&#xb7;" horiz-adv-x="236" 
d="M178 188h-121v113h121v-113z" />
    <glyph glyph-name="quotesingle" unicode="'" horiz-adv-x="249" 
d="M82 380l-14 254h113l-15 -254h-84z" />
    <glyph glyph-name="quotedbl" unicode="&#x22;" horiz-adv-x="430" 
d="M82 380l-14 254h113l-15 -254h-84zM263 380l-14 254h113l-15 -254h-84z" />
    <glyph glyph-name="quotedblleft" unicode="&#x201c;" horiz-adv-x="419" 
d="M129.006 641.991l72.9951 -47.9971q-17.999 -27.999 -27.998 -54.9971q-10 -26.998 -14.499 -52.9971q-4.5 -25.998 -5.5 -52.4961q-1 -26.499 -1 -53.4971h-109.993q0 45.9971 5.5 82.4951q5.49902 36.498 15.999 67.4961q10.499 30.998 26.498 57.9961t37.998 53.9971z
M314.006 641.991l72.9951 -47.9971q-17.999 -27.999 -27.998 -54.9971q-10 -26.998 -14.499 -52.9971q-4.5 -25.998 -5.5 -52.4961q-1 -26.499 -1 -53.4971h-109.993q0 45.9971 5.5 82.4951q5.49902 36.498 15.999 67.4961q10.499 30.998 26.498 57.9961t37.998 53.9971z
" />
    <glyph glyph-name="quotedblright" unicode="&#x201d;" horiz-adv-x="419" 
d="M105 372l-73 48q18 28 28 55t14.5 53t5.5 52.5t1 53.5h110q0 -46 -5.5 -82.5t-16 -67.5t-26.5 -58t-38 -54zM280 372l-73 48q18 28 28 55t14.5 53t5.5 52.5t1 53.5h110q0 -46 -5.5 -82.5t-16 -67.5t-26.5 -58t-38 -54z" />
    <glyph glyph-name="quoteleft" unicode="&#x2018;" horiz-adv-x="234" 
d="M129.006 641.991l72.9951 -47.9971q-17.999 -27.999 -27.998 -54.9971q-10 -26.998 -14.499 -52.9971q-4.5 -25.998 -5.5 -52.4961q-1 -26.499 -1 -53.4971h-109.993q0 45.9971 5.5 82.4951q5.49902 36.498 15.999 67.4961q10.499 30.998 26.498 57.9961t37.998 53.9971z
" />
    <glyph glyph-name="quoteright" unicode="&#x2019;" horiz-adv-x="234" 
d="M105 372l-73 48q18 28 28 55t14.5 53t5.5 52.5t1 53.5h110q0 -46 -5.5 -82.5t-16 -67.5t-26.5 -58t-38 -54z" />
    <glyph glyph-name="quotesinglbase" unicode="&#x201a;" horiz-adv-x="236" 
d="M88 -149l-73 48q18 28 28 55t14.5 53t5.5 52.5t1 53.5h110q0 -46 -5.5 -82.5t-16 -67.5t-26.5 -58t-38 -54z" />
    <glyph glyph-name="quotedblbase" unicode="&#x201e;" horiz-adv-x="409" 
d="M105 -149l-73 48q18 28 28 55t14.5 53t5.5 52.5t1 53.5h110q0 -46 -5.5 -82.5t-16 -67.5t-26.5 -58t-38 -54zM280 -149l-73 48q18 28 28 55t14.5 53t5.5 52.5t1 53.5h110q0 -46 -5.5 -82.5t-16 -67.5t-26.5 -58t-38 -54z" />
    <glyph glyph-name="bullet" unicode="&#x2022;" horiz-adv-x="276" 
d="M26 238q0 47 30.5 77.5t81.5 30.5t81.5 -30.5t30.5 -77.5t-30.5 -78t-81.5 -31t-81.5 31t-30.5 78z" />
    <glyph glyph-name="zero" unicode="0" 
d="M260 -10q-62 0 -107 22.5t-74 63.5t-43 99t-14 129t14 129t43 99t74 63.5t107 22.5t106.5 -22.5t73.5 -63.5t43 -99t14 -129t-14 -129t-43 -99t-73.5 -63.5t-106.5 -22.5zM260 525q-31 0 -53.5 -15.5t-37 -44.5t-21.5 -70t-7 -91q0 -101 28.5 -161t90.5 -60
q60 0 88.5 59.5t28.5 161.5q0 101 -28.5 161t-88.5 60z" />
    <glyph glyph-name="one" unicode="1" 
d="M232 0v494l-124 -59l-36 75l200 98h82v-608h-122z" />
    <glyph glyph-name="two" unicode="2" 
d="M486 0h-446v65l223 221q44 43 59.5 79.5t15.5 72.5q0 22 -8.5 38t-23 27t-33 16.5t-39.5 5.5q-42 0 -81.5 -12.5t-79.5 -35.5l-39 82q54 30 107 44.5t104 14.5q47 0 87.5 -9t70.5 -29.5t47 -54t17 -83.5q0 -30 -9.5 -58t-25.5 -53.5t-37 -49t-43 -45.5l-145 -142h279v-94
z" />
    <glyph glyph-name="three" unicode="3" 
d="M243 -10q-69 0 -126 20.5t-91 53.5l62 76q26 -20 66 -35.5t86 -15.5q25 0 47 5.5t38.5 16.5t26 29t9.5 42q0 43 -32 66t-89 23q-32 0 -49 -3.5t-28 -6.5l-4 100h42q20 0 44.5 3.5t46 13.5t36 26.5t14.5 42.5q0 41 -28 58.5t-69 17.5q-40 0 -79 -13t-69 -35l-47 80
q30 23 84 43t123 20q48 0 87 -8t67 -27t43.5 -49t15.5 -73q0 -22 -8.5 -41.5t-22 -36t-31 -29t-35.5 -19.5q51 -18 85.5 -53.5t34.5 -100.5q0 -50 -19 -86t-52.5 -59t-79.5 -34.5t-99 -11.5z" />
    <glyph glyph-name="four" unicode="4" 
d="M424 608v-393h80v-89h-80v-126h-122v126h-287v68l223 414h186zM302 215v299h-8l-155 -299h163z" />
    <glyph glyph-name="five" unicode="5" 
d="M77 296v312h367v-91h-245v-130h15q55 0 104.5 -8t86 -28.5t58 -56.5t21.5 -93q0 -54 -17.5 -93.5t-50 -65.5t-77 -39t-98.5 -13q-69 0 -119 22.5t-86 58.5l66 76q30 -27 64.5 -43.5t78.5 -16.5q54 0 84 25.5t30 76.5q0 31 -13.5 51.5t-36 33t-52.5 17.5t-63 5h-117z" />
    <glyph glyph-name="six" unicode="6" 
d="M34.0293 273.021q0 83.9951 15.999 148.491t49.9971 107.993t87.9951 65.9961q53.9961 22.498 128.992 22.498q40.9971 0 75.9951 -6.99902q34.998 -7 64.9961 -18.999l-27.998 -86.9951q-43.998 18.999 -104.994 18.999q-54.9961 0 -87.9941 -19.999
q-32.998 -19.998 -50.4971 -54.4961t-22.499 -79.4951q-1 -3 -1 -7q18.999 11 43.998 18.999q37.9971 10.999 72.9951 10.999q99.9941 0 152.49 -46.9971q52.4971 -46.9971 52.4971 -143.991q0 -45.9971 -14.499 -84.4941q-14.499 -38.498 -42.9971 -66.9961
t-70.4961 -44.4971q-41.9971 -15.999 -95.9941 -15.999q-53.9961 0 -96.4941 14.999q-42.4971 14.999 -71.4951 48.4971q-28.999 33.498 -43.998 87.4941q-14.999 53.9971 -14.999 131.992zM162.021 198.025q3 -35.998 14.499 -61.9961q11.5 -25.999 31.998 -40.998
q20.499 -14.999 53.4971 -14.999q99.9941 0 99.9941 113.993q0 45.9971 -26.998 73.9951q-26.999 27.999 -74.9961 27.999q-30.998 0 -60.9961 -9q-21.999 -6 -40.9971 -17.999q0 -37.9971 3.99902 -70.9951z" />
    <glyph glyph-name="nine" unicode="9" 
d="M485 335q0 -84 -16 -148.5t-50 -108t-88 -66t-129 -22.5q-41 0 -76 7t-65 19l28 87q44 -19 105 -19q55 0 88 20t50.5 54.5t22.5 79.5q1 3 1 7q-19 -11 -44 -19q-38 -11 -73 -11q-100 0 -152.5 47t-52.5 144q0 46 14.5 84.5t43 67t70.5 44.5t96 16t96.5 -15t71.5 -48.5
t44 -87.5t15 -132zM357 410q-3 36 -14.5 62t-32 41t-53.5 15q-100 0 -100 -114q0 -46 27 -74t75 -28q31 0 61 9q22 6 41 18q0 38 -4 71z" />
    <glyph glyph-name="seven" unicode="7" 
d="M138 0l212 516h-318v92h456v-62l-222 -546h-128z" />
    <glyph glyph-name="eight" unicode="8" 
d="M382 317q21 -6 41.5 -19.5t36.5 -33t25.5 -45t9.5 -55.5q0 -88 -63.5 -131t-172.5 -43q-108 0 -171.5 43t-63.5 131q0 30 9.5 55.5t25 45t36 33t41.5 19.5q-37 14 -65.5 48t-28.5 89q0 78 57 121t160 43t160.5 -43t57.5 -121q0 -27 -8 -49.5t-21 -39.5t-30.5 -29
t-35.5 -19zM360 174q0 44 -27 68t-74 24q-50 0 -77 -24t-27 -68q0 -46 27 -70.5t77 -24.5q47 0 74 24.5t27 70.5zM348 444q0 40 -23.5 62.5t-65.5 22.5q-44 0 -68 -22.5t-24 -62.5q0 -41 24 -63.5t68 -22.5q42 0 65.5 22.5t23.5 63.5z" />
    <glyph glyph-name="A" unicode="A" horiz-adv-x="602" 
d="M463 0l-51 158h-227l-51 -158h-129l218 608h162l212 -608h-134zM296 514l-79 -259h163l-76 259h-8z" />
    <glyph glyph-name="B" unicode="B" horiz-adv-x="559" 
d="M422 325q46 -17 76.5 -53.5t30.5 -91.5q0 -48 -16.5 -82t-44.5 -55.5t-65.5 -32t-80.5 -10.5h-257v608h242q48 0 86 -8t64 -26t40 -47.5t14 -71.5q0 -44 -24 -78t-65 -52zM385 438q0 23 -7 37.5t-18.5 23t-26.5 11.5t-32 3h-118v-151h119q37 0 60 19.5t23 56.5zM303 95
q19 0 37 4t31 13.5t21 26t8 42.5q0 27 -7.5 44t-21 27.5t-31 14.5t-36.5 4h-121v-176h120z" />
    <glyph glyph-name="C" unicode="C" horiz-adv-x="563" 
d="M321 -10q-149 0 -214 81t-65 233q0 157 73.5 235.5t210.5 78.5q28 0 57.5 -5t57.5 -15.5t53 -27t43 -38.5l-72 -70q-25 29 -58 44.5t-77 15.5q-162 0 -162 -227q0 -202 161 -202q49 0 92 11.5t81 28.5l28 -94q-39 -22 -96 -35.5t-113 -13.5z" />
    <glyph glyph-name="D" unicode="D" horiz-adv-x="620" 
d="M262 608q75 0 134 -16.5t99.5 -53t61.5 -95t21 -141.5q0 -85 -26 -143t-71.5 -93t-107.5 -50.5t-135 -15.5h-173v608h197zM234 95q50 0 90 10.5t68 35t43 66.5t15 105q0 103 -51 151.5t-140 48.5h-72v-417h47z" />
    <glyph glyph-name="E" unicode="E" horiz-adv-x="514" 
d="M466 96v-96h-401v608h391v-96h-269v-152h260v-94h-260v-170h279z" />
    <glyph glyph-name="F" unicode="F" horiz-adv-x="477" 
d="M187 0h-122v608h382v-96h-260v-152h241v-94h-241v-266z" />
    <glyph glyph-name="G" unicode="G" horiz-adv-x="622" 
d="M561 31q-44 -20 -100 -30.5t-120 -10.5q-155 0 -227 81.5t-72 232.5q0 156 80.5 235t223.5 79q68 0 126.5 -21t98.5 -69l-74 -66q-26 28 -62.5 45.5t-86.5 17.5q-89 0 -135 -59t-46 -171q0 -104 47 -156.5t134 -52.5q27 0 55 3q20 3 39 8v143h-126v93h245v-302z" />
    <glyph glyph-name="H" unicode="H" horiz-adv-x="625" 
d="M560 608v-608h-122v256h-251v-256h-122v608h122v-255h251v255h122z" />
    <glyph glyph-name="I" unicode="I" horiz-adv-x="252" 
d="M65 608h122v-608h-122v608z" />
    <glyph glyph-name="J" unicode="J" horiz-adv-x="343" 
d="M156 608h122v-424q0 -101 -43.5 -145t-141.5 -44q-22 0 -48.5 4t-49.5 12l15 89q20 -5 40 -7.5t34 -2.5q34 0 53 19.5t19 64.5v434z" />
    <glyph glyph-name="K" unicode="K" horiz-adv-x="561" 
d="M187 0h-122v608h122v-257h45l197 257h137l-233 -295l227 -313h-145l-183 257h-45v-257z" />
    <glyph glyph-name="L" unicode="L" horiz-adv-x="441" 
d="M436 96v-96h-371v608h122v-512h249z" />
    <glyph glyph-name="M" unicode="M" horiz-adv-x="784" 
d="M719 608v-608h-122v514h-8l-115 -514h-162l-117 514h-8v-514h-122v608h216l112 -514h8l109 514h209z" />
    <glyph glyph-name="N" unicode="N" horiz-adv-x="673" 
d="M608 608v-608h-211l-202 514h-8v-514h-122v608h211l202 -514h8v514h122z" />
    <glyph glyph-name="O" unicode="O" horiz-adv-x="638" 
d="M42 307q0 156 70.5 233.5t216.5 77.5q74 0 125 -22t82.5 -63t45.5 -100t14 -132q0 -155 -71 -233t-217 -78q-75 0 -125.5 22t-82 63.5t-45 100t-13.5 131.5zM469 313q0 43 -6.5 81.5t-22 67.5t-42.5 46t-68 17q-46 0 -77 -15t-50.5 -44t-28 -71.5t-8.5 -97.5
q0 -44 6.5 -82.5t23 -67t43 -45.5t67.5 -17q47 0 78.5 15t50 44t26.5 71.5t8 97.5z" />
    <glyph glyph-name="P" unicode="P" horiz-adv-x="531" 
d="M65 0v608h228q103 0 159.5 -47t56.5 -141q0 -47 -15.5 -84.5t-42.5 -63t-64.5 -39t-81.5 -13.5h-119v-220h-121zM285 315q18 0 35.5 5.5t31 18t22 32.5t8.5 49q0 27 -9 44.5t-23 28.5t-31 15.5t-34 4.5h-99v-198h99z" />
    <glyph glyph-name="Q" unicode="Q" horiz-adv-x="637" 
d="M42 306q0 157 70 234.5t218 77.5q75 0 126 -22t82 -63t44.5 -100t13.5 -133q0 -93 -27.5 -153.5t-70.5 -95.5l-10 -8l124 -111l-94 -65l-131 132q-41 -9 -80 -9q-74 0 -124.5 21.5t-82 62.5t-45 99.5t-13.5 132.5zM469 312q0 44 -6 82.5t-21 67.5t-42 46t-69 17
q-47 0 -78.5 -15t-51 -44t-27.5 -71.5t-8 -98.5q0 -45 6 -83.5t22 -67.5t42.5 -45.5t68.5 -16.5q48 0 79.5 14.5t50 43.5t26.5 72t8 99z" />
    <glyph glyph-name="R" unicode="R" horiz-adv-x="551" 
d="M65 0v608h238q103 0 159.5 -42t56.5 -136q0 -41 -12 -72.5t-33.5 -54t-51.5 -37.5q-7 -3 -14 -7l130 -259h-132l-118 240h-102v-240h-121zM298 334q18 0 35.5 5t30.5 16t21 29.5t8 45.5q0 24 -8.5 40t-22.5 25.5t-31 13t-33 3.5h-112v-178h112z" />
    <glyph glyph-name="S" unicode="S" horiz-adv-x="509" 
d="M312 221q-36 17 -76.5 30.5t-80.5 30.5q-29 13 -50.5 27t-35.5 33t-21.5 43.5t-7.5 58.5q0 81 59.5 127.5t171.5 46.5q48 0 103 -11t98 -35l-42 -90q-29 17 -70.5 28.5t-87.5 11.5q-59 0 -84.5 -18.5t-25.5 -49.5q0 -30 19 -46t39 -24q30 -13 71.5 -27.5t78.5 -31.5
q22 -11 42 -23.5t35 -31t23.5 -44t8.5 -61.5q0 -81 -62.5 -128t-172.5 -47q-50 0 -106.5 12t-107.5 38l45 91q42 -21 82.5 -31.5t84.5 -10.5q64 0 90.5 20t26.5 50q0 13 -5 23.5t-12.5 18t-15.5 12.5t-14 8z" />
    <glyph glyph-name="T" unicode="T" horiz-adv-x="490" 
d="M485 608v-96h-179v-512h-122v512h-179v96h480z" />
    <glyph glyph-name="U" unicode="U" horiz-adv-x="597" 
d="M540 608v-366q0 -67 -16.5 -114.5t-48.5 -78t-78.5 -45t-105.5 -14.5q-118 0 -176 60.5t-58 197.5v360h122v-374q0 -71 25.5 -110.5t85.5 -39.5q70 0 99 37.5t29 127.5v359h122z" />
    <glyph glyph-name="V" unicode="V" horiz-adv-x="552" 
d="M288 95l139 513h125l-190 -608h-162l-200 608h131l149 -513h8z" />
    <glyph glyph-name="W" unicode="W" horiz-adv-x="854" 
d="M854 608l-151 -608h-174l-97 514h-8l-93 -514h-176l-155 608h132l110 -513h8l91 513h179l95 -513h8l106 513h125z" />
    <glyph glyph-name="X" unicode="X" horiz-adv-x="566" 
d="M272 247l-135 -247h-136l185 312l-172 296h142l121 -226h18l121 226h137l-173 -293l185 -315h-140l-135 247h-18z" />
    <glyph glyph-name="Y" unicode="Y" horiz-adv-x="557" 
d="M339 256v-256h-122v256q-25 39 -53 85t-56.5 92.5t-56 91.5t-51.5 83h140l135 -243h8l134 243h140z" />
    <glyph glyph-name="Z" unicode="Z" horiz-adv-x="523" 
d="M498 532l-324 -437h323v-95h-472v76l324 438h-302v94h451v-76z" />
    <glyph glyph-name="a" unicode="a" horiz-adv-x="446" 
d="M437 0q-18 -4 -45 -4q-36 0 -59.5 10.5t-37.5 32.5q-23 -22 -58.5 -35.5t-66.5 -13.5q-47 0 -75 11t-44 30t-21 43t-5 50q0 42 13.5 68.5t38.5 41.5t60 21t78 6q14 0 31 -0.5t30 -1.5v20q0 34 -19.5 52t-62.5 18q-36 0 -69 -9t-59 -23l-24 73q34 18 83 30.5t99 12.5
t83 -9t53 -29.5t28.5 -54.5t8.5 -85v-130q0 -26 10 -35.5t30 -9.5v-80zM216 183q-38 0 -52.5 -14.5t-14.5 -40.5q0 -27 10.5 -42t39.5 -15q16 0 38 6.5t39 22.5v80q-16 2 -31 2.5t-29 0.5z" />
    <glyph glyph-name="b" unicode="b" horiz-adv-x="479" 
d="M246 -10q-30 0 -57 8q-23 7 -44 21l-8 -19h-89v626l120 16v-234q13 7 26 12q37 13 79 13q91 0 134 -56.5t43 -152.5q0 -51 -11 -94t-35.5 -74t-63.5 -48.5t-94 -17.5zM183 80q22 -7 41 -7q22 0 40.5 7t32 23.5t21.5 43.5t8 68q0 134 -93 134q-29 0 -52 -14q-7 -4 -13 -10
v-238q8 -4 15 -7z" />
    <glyph glyph-name="c" unicode="c" horiz-adv-x="428" 
d="M400 29q-23 -16 -64 -27.5t-93 -11.5q-116 0 -164 55t-48 160q0 115 58.5 171.5t170.5 56.5q48 0 89 -15.5t62 -41.5l-67 -64q-17 21 -38 29.5t-47 8.5q-54 0 -80.5 -33.5t-26.5 -111.5q0 -63 23 -97.5t80 -34.5q38 0 65.5 8.5t57.5 23.5z" />
    <glyph glyph-name="d" unicode="d" horiz-adv-x="487" 
d="M208 -10q-92 0 -134.5 56.5t-42.5 152.5q0 51 11 94t35.5 74t63 48.5t94.5 17.5q30 0 56 -8q11 -3 21 -7v208l120 16v-528l8 -114h-102l-8 25q-21 -14 -44 -22q-36 -13 -78 -13zM298 343q-22 7 -41 7q-22 0 -40.5 -7t-32 -23.5t-21.5 -43.5t-8 -68q0 -134 93 -134
q29 0 52 14q6 4 12 9v239q-7 5 -14 7z" />
    <glyph glyph-name="e" unicode="e" horiz-adv-x="459" 
d="M243 -10q-117 0 -164.5 56.5t-47.5 167.5q0 219 210 219q58 0 94.5 -15.5t57 -43.5t28 -65.5t7.5 -82.5v-43h-274q0 -44 17 -71q23 -37 91 -37q50 0 80 11.5t57 23.5l22 -75q-13 -8 -32.5 -15.5t-43.5 -14.5t-50 -11t-52 -4zM304 261q0 45 -15 69.5t-50 24.5
q-28 0 -45 -8.5t-26.5 -25.5t-11.5 -42q-1 -8 -1 -18h149z" />
    <glyph glyph-name="f" unicode="f" horiz-adv-x="329" 
d="M336 423v-88h-139v-335h-120v335h-62v88h61v49q0 48 13.5 80.5t37.5 52.5t57.5 28.5t73.5 8.5q28 0 55 -4t49 -13l-25 -84q-29 13 -62 13q-44 0 -61.5 -19t-17.5 -57v-55h140z" />
    <glyph glyph-name="g" unicode="g" horiz-adv-x="479" 
d="M431 423v-433q0 -56 -16.5 -94t-45.5 -62t-69 -34.5t-88 -10.5q-45 0 -82 7t-64 18l31 81q17 -6 45 -12t64 -6q48 0 76.5 20.5t28.5 71.5v36q-20 -7 -43.5 -11t-48.5 -4q-99 0 -143.5 54.5t-44.5 151.5q0 52 10.5 95.5t34.5 75t64 49t100 17.5q29 0 52.5 -7t41.5 -15
l4 12h93zM311 343q-25 7 -49 7q-58 0 -83 -34t-25 -113q0 -58 23 -94.5t81 -36.5q12 0 25 1t28 6v264z" />
    <glyph glyph-name="h" unicode="h" horiz-adv-x="475" 
d="M311 0v259q0 16 -1.5 30.5t-7 25.5t-17 17.5t-31.5 6.5q-29 0 -51 -8q-20 -8 -35 -18v-313h-120v626l120 16v-242q16 9 34 15q23 9 46.5 13t44.5 4q41 0 67.5 -10.5t42.5 -29.5t22 -46t6 -61v-285h-120z" />
    <glyph glyph-name="i" unicode="i" horiz-adv-x="218" 
d="M48 608h122v-96h-122v96zM49 423h120v-423h-120v423z" />
    <glyph glyph-name="j" unicode="j" horiz-adv-x="218" 
d="M-17 -125h10q35 0 45.5 17t10.5 61v470h120v-455q0 -51 -10 -85.5t-32 -55.5t-55.5 -29.5t-81.5 -8.5h-7v86zM169 514h-121v94h121v-94z" />
    <glyph glyph-name="k" unicode="k" horiz-adv-x="445" 
d="M48 0v626l119 16v-369h31l126 150h132l-166 -193l172 -230h-133l-134 184h-28v-184h-119z" />
    <glyph glyph-name="l" unicode="l" horiz-adv-x="226" 
d="M216 -3q-5 -1 -10 -1q-5 -1 -11 -1h-10q-39 0 -65.5 9.5t-42 27.5t-22.5 44t-7 59v491l119 16v-504q0 -19 2.5 -30.5t8 -17.5t15 -8t23.5 -2v-83z" />
    <glyph glyph-name="m" unicode="m" horiz-adv-x="699" 
d="M152 423l2 -29q19 14 40 22q41 17 84 17q41 0 67 -11q24 -9 38 -26q20 12 42 20q23 9 47 13t45 4q41 0 67.5 -10.5t42 -29.5t21.5 -46.5t6 -61.5v-285h-119v259q0 16 -1 31t-6 26t-15.5 17.5t-30.5 6.5q-29 0 -50 -8q-12 -5 -23 -11q2 -17 2 -36v-285h-119v259
q0 16 -1 31t-6 26t-15.5 17.5t-30.5 6.5q-29 0 -50 -8q-11 -5 -21 -11v-321h-119v309l-8 114h111z" />
    <glyph glyph-name="n" unicode="n" horiz-adv-x="476" 
d="M152 423l3 -30q21 14 46 23q49 17 92 17q41 0 67.5 -10.5t42.5 -29.5t22 -46.5t6 -61.5v-285h-120v259q0 16 -1.5 31t-7 26t-17 17.5t-31.5 6.5q-29 0 -51 -8q-19 -7 -34 -17v-315h-120v309l-8 114h111z" />
    <glyph glyph-name="o" unicode="o" horiz-adv-x="488" 
d="M234 -10q-59 0 -98 15.5t-62.5 44.5t-33 70t-9.5 93q0 110 53.5 165t168.5 55q59 0 98 -15.5t62.5 -44.5t33.5 -70.5t10 -93.5q0 -110 -54 -164.5t-169 -54.5zM234 71q59 0 80 37t21 109q0 28 -3.5 52.5t-12.5 43t-25 29.5t-41 11q-58 0 -79 -37.5t-21 -109.5
q0 -28 3.5 -52.5t12.5 -43t24.5 -29t40.5 -10.5z" />
    <glyph glyph-name="p" unicode="p" horiz-adv-x="480" 
d="M143 423l8 -25q21 14 43 22q37 13 79 13q91 0 134 -56.5t43 -152.5q0 -51 -11 -94t-35.5 -74t-63.5 -48.5t-94 -17.5q-30 0 -57 8q-10 3 -20 7v-200l-120 -16v520l-8 114h102zM183 80q22 -7 41 -7q22 0 40.5 7t32 23.5t21.5 43.5t8 68q0 134 -93 134q-29 0 -52 -14
q-6 -4 -12 -9v-240q7 -4 14 -6z" />
    <glyph glyph-name="q" unicode="q" horiz-adv-x="479" 
d="M235 433q30 0 56 -8q23 -6 43 -19l7 17h90v-618l-120 -16v224q-12 -6 -25 -10q-36 -13 -78 -13q-92 0 -134.5 56.5t-42.5 152.5q0 51 11 94t35.5 74t63 48.5t94.5 17.5zM298 343q-22 7 -41 7q-22 0 -40.5 -7t-32 -23.5t-21.5 -43.5t-8 -68q0 -134 93 -134q29 0 52 14
q5 4 11 8v241q-7 4 -13 6z" />
    <glyph glyph-name="r" unicode="r" horiz-adv-x="348" 
d="M148 423l6 -45q16 20 35 31q41 24 86 24q24 0 42 -4.5t30 -9.5l-28 -94q-22 13 -54 13q-34 0 -65 -17q-16 -8 -30 -24v-297h-120v303l-13 120h111z" />
    <glyph glyph-name="s" unicode="s" horiz-adv-x="412" 
d="M202 271q6 -2 16 -5t21.5 -6.5t22 -7t18.5 -5.5q21 -6 40.5 -15t33.5 -23t22.5 -34t8.5 -49q0 -68 -49 -102t-136 -34q-57 0 -97.5 9t-75.5 23l36 84q26 -14 60 -22t76 -8q34 0 52.5 8.5t18.5 29.5q0 27 -57 45q-19 5 -39.5 11t-36.5 11q-22 7 -41 16.5t-33.5 23.5
t-22.5 33.5t-8 46.5q0 66 49.5 99t134.5 33q54 0 93.5 -8.5t74.5 -22.5l-35 -84q-27 14 -61 22.5t-72 8.5q-34 0 -52.5 -9t-18.5 -26q0 -15 14 -24.5t43 -18.5z" />
    <glyph glyph-name="t" unicode="t" horiz-adv-x="374" 
d="M202 335v-173q0 -16 1.5 -30.5t7 -25.5t16.5 -17.5t31 -6.5q25 0 46.5 5.5t40.5 15.5l19 -79q-65 -34 -145 -34q-41 0 -67.5 10.5t-41.5 29.5t-21 46t-6 61v198h-72v78l71 8v81l120 21v-100h145v-88h-145z" />
    <glyph glyph-name="u" unicode="u" horiz-adv-x="472" 
d="M423 114l8 -114h-111l-4 29q-21 -13 -46 -22q-47 -17 -90 -17q-41 0 -67 10.5t-41 29.5t-21 46.5t-6 61.5v285h120v-260q0 -17 1.5 -31.5t6.5 -25.5t16 -17.5t31 -6.5q29 0 50 8q18 7 33 17v316h120v-309z" />
    <glyph glyph-name="v" unicode="v" horiz-adv-x="443" 
d="M227 81l94 342h122l-145 -423h-157l-141 423h128l90 -342h9z" />
    <glyph glyph-name="w" unicode="w" horiz-adv-x="667" 
d="M417 423l51 -342h8l67 342h119l-110 -423h-164l-50 342h-8l-53 -342h-167l-105 423h125l66 -342h8l51 342h162z" />
    <glyph glyph-name="x" unicode="x" horiz-adv-x="442" 
d="M210 165l-84 -165h-126l125 217l-123 206h131l80 -157h15l80 157h128l-123 -204l129 -219h-132l-85 165h-15z" />
    <glyph glyph-name="y" unicode="y" horiz-adv-x="435" 
d="M0 423h133l87 -286h9l84 286h122l-167 -457q-15 -40 -31 -72.5t-39.5 -56t-55.5 -36t-78 -12.5q-15 0 -31.5 1t-30.5 6l15 80q16 -3 35 -3q31 0 47.5 9.5t25.5 21.5q11 14 22 41.5t21 54.5z" />
    <glyph glyph-name="z" unicode="z" horiz-adv-x="417" 
d="M397 354l-235 -266h237v-88h-379v69l234 266h-223v88h366v-69z" />
    <glyph glyph-name="acute" unicode="&#xb4;" horiz-adv-x="500" 
d="M380 634l-126 -146h-110l103 146h133z" />
    <glyph glyph-name="circumflex" unicode="&#x2c6;" horiz-adv-x="500" 
d="M326 634l93 -146h-104l-60 86h-10l-64 -86h-101l97 146h149z" />
    <glyph glyph-name="caron" unicode="&#x2c7;" horiz-adv-x="500" 
d="M173 488l-93 146h104l60 -86h10l64 86h101l-97 -146h-149z" />
    <glyph glyph-name="breve" unicode="&#x2d8;" horiz-adv-x="500" 
d="M405 634q0 -78 -34.5 -116t-120.5 -38t-120.5 38t-34.5 116h90q2 -35 15 -55.5t50 -20.5t50 20.5t15 55.5h90z" />
    <glyph glyph-name="dotaccent" unicode="&#x2d9;" horiz-adv-x="500" 
d="M311 512h-122v96h122v-96z" />
    <glyph glyph-name="dieresis" unicode="&#xa8;" horiz-adv-x="500" 
d="M215 512h-117v96h117v-96zM401 512h-117v96h117v-96z" />
    <glyph glyph-name="tilde" unicode="&#x2dc;" horiz-adv-x="500" 
d="M74 568q20 22 50.5 37t65.5 15q20 0 35.5 -4.5t29.5 -10.5t27.5 -10.5t29.5 -4.5q23 0 43 9t38 22l33 -69q-20 -22 -50.5 -37t-65.5 -15q-20 0 -35.5 4.5t-29.5 10.5t-27.5 10.5t-29.5 4.5q-23 0 -43 -9t-38 -22z" />
    <glyph glyph-name="macron" unicode="&#xaf;" horiz-adv-x="500" 
d="M396 515h-296v90h296v-90z" />
    <glyph glyph-name="ring" unicode="&#x2da;" horiz-adv-x="500" 
d="M230 458q-60 0 -84 29t-24 73q0 48 30 75t87 27q60 0 84 -29.5t24 -73.5q0 -48 -30 -74.5t-87 -26.5zM233 521q41 0 41 39q0 38 -38 38q-42 0 -42 -38q0 -39 39 -39z" />
    <glyph glyph-name="ogonek" unicode="&#x2db;" horiz-adv-x="281" 
d="M252 -189q-19 -9 -47.5 -14.5t-56.5 -5.5q-59 0 -88 22.5t-29 72.5q0 38 20 64.5t73 51.5q24 11 48.5 18.5t47.5 12.5l11 -33q-16 -8 -30 -16t-27 -18q-17 -13 -24 -26t-7 -32q0 -42 44 -42q11 0 22.5 1.5t21.5 5.5z" />
    <glyph glyph-name="cedilla" unicode="&#xb8;" horiz-adv-x="500" 
d="M158 -129q16 -5 29 -7.5t29 -2.5q23 0 36 8t13 26q0 12 -4 20t-13 13t-24.5 8t-37.5 7l21 56q83 -5 125.5 -26.5t42.5 -76.5q0 -56 -34.5 -81t-109.5 -25q-28 0 -55 5t-44 11z" />
    <glyph glyph-name="commaaccent" unicode="&#xf6c3;" horiz-adv-x="500" 
d="M223 -293l-71 55q16 23 25.5 44t14.5 43t7 46.5t2 54.5h108q0 -76 -19.5 -134.5t-66.5 -108.5z" />
    <glyph glyph-name="aacute" unicode="&#xe1;" horiz-adv-x="446" 
d="M437 0q-18 -4 -45 -4q-36 0 -59.5 10.5t-37.5 32.5q-23 -22 -58.5 -35.5t-66.5 -13.5q-47 0 -75 11t-44 30t-21 43t-5 50q0 42 13.5 68.5t38.5 41.5t60 21t78 6q14 0 31 -0.5t30 -1.5v20q0 34 -19.5 52t-62.5 18q-36 0 -69 -9t-59 -23l-24 73q34 18 83 30.5t99 12.5
t83 -9t53 -29.5t28.5 -54.5t8.5 -85v-130q0 -26 10 -35.5t30 -9.5v-80zM216 183q-38 0 -52.5 -14.5t-14.5 -40.5q0 -27 10.5 -42t39.5 -15q16 0 38 6.5t39 22.5v80q-16 2 -31 2.5t-29 0.5zM376 634l-126 -146h-110l103 146h133z" />
    <glyph glyph-name="acircumflex" unicode="&#xe2;" horiz-adv-x="446" 
d="M437 0q-18 -4 -45 -4q-36 0 -59.5 10.5t-37.5 32.5q-23 -22 -58.5 -35.5t-66.5 -13.5q-47 0 -75 11t-44 30t-21 43t-5 50q0 42 13.5 68.5t38.5 41.5t60 21t78 6q14 0 31 -0.5t30 -1.5v20q0 34 -19.5 52t-62.5 18q-36 0 -69 -9t-59 -23l-24 73q34 18 83 30.5t99 12.5
t83 -9t53 -29.5t28.5 -54.5t8.5 -85v-130q0 -26 10 -35.5t30 -9.5v-80zM216 183q-38 0 -52.5 -14.5t-14.5 -40.5q0 -27 10.5 -42t39.5 -15q16 0 38 6.5t39 22.5v80q-16 2 -31 2.5t-29 0.5zM303 634l93 -146h-104l-60 86h-10l-64 -86h-101l97 146h149z" />
    <glyph glyph-name="abreve" unicode="&#x103;" horiz-adv-x="446" 
d="M437 0q-18 -4 -45 -4q-36 0 -59.5 10.5t-37.5 32.5q-23 -22 -58.5 -35.5t-66.5 -13.5q-47 0 -75 11t-44 30t-21 43t-5 50q0 42 13.5 68.5t38.5 41.5t60 21t78 6q14 0 31 -0.5t30 -1.5v20q0 34 -19.5 52t-62.5 18q-36 0 -69 -9t-59 -23l-24 73q34 18 83 30.5t99 12.5
t83 -9t53 -29.5t28.5 -54.5t8.5 -85v-130q0 -26 10 -35.5t30 -9.5v-80zM216 183q-38 0 -52.5 -14.5t-14.5 -40.5q0 -27 10.5 -42t39.5 -15q16 0 38 6.5t39 22.5v80q-16 2 -31 2.5t-29 0.5zM379 634q0 -78 -34.5 -116t-120.5 -38t-120.5 38t-34.5 116h90q2 -35 15 -55.5
t50 -20.5t50 20.5t15 55.5h90z" />
    <glyph glyph-name="adieresis" unicode="&#xe4;" horiz-adv-x="446" 
d="M437 0q-18 -4 -45 -4q-36 0 -59.5 10.5t-37.5 32.5q-23 -22 -58.5 -35.5t-66.5 -13.5q-47 0 -75 11t-44 30t-21 43t-5 50q0 42 13.5 68.5t38.5 41.5t60 21t78 6q14 0 31 -0.5t30 -1.5v20q0 34 -19.5 52t-62.5 18q-36 0 -69 -9t-59 -23l-24 73q34 18 83 30.5t99 12.5
t83 -9t53 -29.5t28.5 -54.5t8.5 -85v-130q0 -26 10 -35.5t30 -9.5v-80zM216 183q-38 0 -52.5 -14.5t-14.5 -40.5q0 -27 10.5 -42t39.5 -15q16 0 38 6.5t39 22.5v80q-16 2 -31 2.5t-29 0.5zM194 512h-117v96h117v-96zM380 512h-117v96h117v-96z" />
    <glyph glyph-name="atilde" unicode="&#xe3;" horiz-adv-x="446" 
d="M437 0q-18 -4 -45 -4q-36 0 -59.5 10.5t-37.5 32.5q-23 -22 -58.5 -35.5t-66.5 -13.5q-47 0 -75 11t-44 30t-21 43t-5 50q0 42 13.5 68.5t38.5 41.5t60 21t78 6q14 0 31 -0.5t30 -1.5v20q0 34 -19.5 52t-62.5 18q-36 0 -69 -9t-59 -23l-24 73q34 18 83 30.5t99 12.5
t83 -9t53 -29.5t28.5 -54.5t8.5 -85v-130q0 -26 10 -35.5t30 -9.5v-80zM216 183q-38 0 -52.5 -14.5t-14.5 -40.5q0 -27 10.5 -42t39.5 -15q16 0 38 6.5t39 22.5v80q-16 2 -31 2.5t-29 0.5zM50 568q20 22 50.5 37t65.5 15q20 0 35.5 -4.5t29.5 -10.5t27.5 -10.5t29.5 -4.5
q23 0 43 9t38 22l33 -69q-20 -22 -50.5 -37t-65.5 -15q-20 0 -35.5 4.5t-29.5 10.5t-27.5 10.5t-29.5 4.5q-23 0 -43 -9t-38 -22z" />
    <glyph glyph-name="amacron" unicode="&#x101;" horiz-adv-x="446" 
d="M437 0q-18 -4 -45 -4q-36 0 -59.5 10.5t-37.5 32.5q-23 -22 -58.5 -35.5t-66.5 -13.5q-47 0 -75 11t-44 30t-21 43t-5 50q0 42 13.5 68.5t38.5 41.5t60 21t78 6q14 0 31 -0.5t30 -1.5v20q0 34 -19.5 52t-62.5 18q-36 0 -69 -9t-59 -23l-24 73q34 18 83 30.5t99 12.5
t83 -9t53 -29.5t28.5 -54.5t8.5 -85v-130q0 -26 10 -35.5t30 -9.5v-80zM216 183q-38 0 -52.5 -14.5t-14.5 -40.5q0 -27 10.5 -42t39.5 -15q16 0 38 6.5t39 22.5v80q-16 2 -31 2.5t-29 0.5zM386 515h-296v90h296v-90z" />
    <glyph glyph-name="aring" unicode="&#xe5;" horiz-adv-x="446" 
d="M437 0q-18 -4 -45 -4q-36 0 -59.5 10.5t-37.5 32.5q-23 -22 -58.5 -35.5t-66.5 -13.5q-47 0 -75 11t-44 30t-21 43t-5 50q0 42 13.5 68.5t38.5 41.5t60 21t78 6q14 0 31 -0.5t30 -1.5v20q0 34 -19.5 52t-62.5 18q-36 0 -69 -9t-59 -23l-24 73q34 18 83 30.5t99 12.5
t83 -9t53 -29.5t28.5 -54.5t8.5 -85v-130q0 -26 10 -35.5t30 -9.5v-80zM216 183q-38 0 -52.5 -14.5t-14.5 -40.5q0 -27 10.5 -42t39.5 -15q16 0 38 6.5t39 22.5v80q-16 2 -31 2.5t-29 0.5zM228 458q-60 0 -84 29t-24 73q0 48 30 75t87 27q60 0 84 -29.5t24 -73.5
q0 -48 -30 -74.5t-87 -26.5zM231 521q41 0 41 39q0 38 -38 38q-42 0 -42 -38q0 -39 39 -39z" />
    <glyph glyph-name="aogonek" unicode="&#x105;" horiz-adv-x="446" 
d="M458 -189q-19 -9 -47.5 -14.5t-56.5 -5.5q-59 0 -88 22.5t-29 72.5q0 38 20 64.5t73 51.5q24 11 48.5 18.5t47.5 12.5l11 -33q-16 -8 -30 -16t-27 -18q-17 -13 -24 -26t-7 -32q0 -42 44 -42q11 0 22.5 1.5t21.5 5.5zM437 0q-18 -4 -45 -4q-36 0 -59.5 10.5t-37.5 32.5
q-23 -22 -58.5 -35.5t-66.5 -13.5q-47 0 -75 11t-44 30t-21 43t-5 50q0 42 13.5 68.5t38.5 41.5t60 21t78 6q14 0 31 -0.5t30 -1.5v20q0 34 -19.5 52t-62.5 18q-36 0 -69 -9t-59 -23l-24 73q34 18 83 30.5t99 12.5t83 -9t53 -29.5t28.5 -54.5t8.5 -85v-130q0 -26 10 -35.5
t30 -9.5v-80zM216 183q-38 0 -52.5 -14.5t-14.5 -40.5q0 -27 10.5 -42t39.5 -15q16 0 38 6.5t39 22.5v80q-16 2 -31 2.5t-29 0.5z" />
    <glyph glyph-name="ae" unicode="&#xe6;" horiz-adv-x="704" 
d="M668 35q-13 -8 -33 -15.5t-44 -14.5t-50.5 -11t-52.5 -4q-105 0 -153 41q-24 -14 -62 -27.5t-92 -13.5q-43 0 -73 11.5t-48.5 30.5t-26.5 43t-8 49q0 40 14 66t39 41t60.5 21t79.5 6h62v19q0 34 -21 53t-64 19q-37 0 -70 -9t-59 -23l-25 73q35 18 84.5 30.5t99.5 12.5
q49 0 80 -11t50 -32q47 43 134 43q57 0 92.5 -15.5t56 -43.5t28 -65.5t7.5 -82.5v-43h-275q1 -53 25.5 -80.5t83.5 -27.5q51 0 81 11.5t57 23.5zM203 72q26 0 49.5 7.5t41.5 19.5q-5 17 -7.5 38t-4.5 46h-66q-38 0 -53 -14.5t-15 -40.5q0 -23 13.5 -39.5t41.5 -16.5z
M484 355q-48 0 -66 -25t-19 -73h152q0 48 -14.5 73t-52.5 25z" />
    <glyph glyph-name="cacute" unicode="&#x107;" horiz-adv-x="429" 
d="M400 29q-23 -16 -64 -27.5t-93 -11.5q-116 0 -164 55t-48 160q0 115 58.5 171.5t170.5 56.5q48 0 89 -15.5t62 -41.5l-67 -64q-17 21 -38 29.5t-47 8.5q-54 0 -80.5 -33.5t-26.5 -111.5q0 -63 23 -97.5t80 -34.5q38 0 65.5 8.5t57.5 23.5zM394 634l-126 -146h-110
l103 146h133z" />
    <glyph glyph-name="ccaron" unicode="&#x10d;" horiz-adv-x="429" 
d="M400 29q-23 -16 -64 -27.5t-93 -11.5q-116 0 -164 55t-48 160q0 115 58.5 171.5t170.5 56.5q48 0 89 -15.5t62 -41.5l-67 -64q-17 21 -38 29.5t-47 8.5q-54 0 -80.5 -33.5t-26.5 -111.5q0 -63 23 -97.5t80 -34.5q38 0 65.5 8.5t57.5 23.5zM173 488l-93 146h104l60 -86h10
l64 86h101l-97 -146h-149z" />
    <glyph glyph-name="ccedilla" unicode="&#xe7;" horiz-adv-x="429" 
d="M400 29q-23 -16 -64 -27.5t-93 -11.5q-116 0 -164 55t-48 160q0 115 58.5 171.5t170.5 56.5q48 0 89 -15.5t62 -41.5l-67 -64q-17 21 -38 29.5t-47 8.5q-54 0 -80.5 -33.5t-26.5 -111.5q0 -63 23 -97.5t80 -34.5q38 0 65.5 8.5t57.5 23.5zM136 -129q16 -5 29 -7.5
t29 -2.5q23 0 36 8t13 26q0 12 -4 20t-13 13t-24.5 8t-37.5 7l21 56q83 -5 125.5 -26.5t42.5 -76.5q0 -56 -34.5 -81t-109.5 -25q-28 0 -55 5t-44 11z" />
    <glyph glyph-name="dcaron" unicode="&#x10f;" horiz-adv-x="602" 
d="M555 483h-79l21 155h116zM208 -10q-92 0 -134.5 56.5t-42.5 152.5q0 51 11 94t35.5 74t63 48.5t94.5 17.5q30 0 56 -8q11 -3 21 -7v208l120 16v-528l8 -114h-102l-8 25q-21 -14 -44 -22q-36 -13 -78 -13zM298 343q-22 7 -41 7q-22 0 -40.5 -7t-32 -23.5t-21.5 -43.5
t-8 -68q0 -134 93 -134q29 0 52 14q6 4 12 9v239q-7 5 -14 7z" />
    <glyph glyph-name="dcroat" unicode="&#x111;" horiz-adv-x="487" 
d="M503 478h-284v81h284v-81zM208 -10q-92 0 -134.5 56.5t-42.5 152.5q0 51 11 94t35.5 74t63 48.5t94.5 17.5q30 0 56 -8q11 -3 21 -7v208l120 16v-528l8 -114h-102l-8 25q-21 -14 -44 -22q-36 -13 -78 -13zM298 343q-22 7 -41 7q-22 0 -40.5 -7t-32 -23.5t-21.5 -43.5
t-8 -68q0 -134 93 -134q29 0 52 14q6 4 12 9v239q-7 5 -14 7z" />
    <glyph glyph-name="eacute" unicode="&#xe9;" horiz-adv-x="459" 
d="M243 -10q-117 0 -164.5 56.5t-47.5 167.5q0 219 210 219q58 0 94.5 -15.5t57 -43.5t28 -65.5t7.5 -82.5v-43h-274q0 -44 17 -71q23 -37 91 -37q50 0 80 11.5t57 23.5l22 -75q-13 -8 -32.5 -15.5t-43.5 -14.5t-50 -11t-52 -4zM304 261q0 45 -15 69.5t-50 24.5
q-28 0 -45 -8.5t-26.5 -25.5t-11.5 -42q-1 -8 -1 -18h149zM394 634l-126 -146h-110l103 146h133z" />
    <glyph glyph-name="ecaron" unicode="&#x11b;" horiz-adv-x="459" 
d="M243 -10q-117 0 -164.5 56.5t-47.5 167.5q0 219 210 219q58 0 94.5 -15.5t57 -43.5t28 -65.5t7.5 -82.5v-43h-274q0 -44 17 -71q23 -37 91 -37q50 0 80 11.5t57 23.5l22 -75q-13 -8 -32.5 -15.5t-43.5 -14.5t-50 -11t-52 -4zM304 261q0 45 -15 69.5t-50 24.5
q-28 0 -45 -8.5t-26.5 -25.5t-11.5 -42q-1 -8 -1 -18h149zM165 488l-93 146h104l60 -86h10l64 86h101l-97 -146h-149z" />
    <glyph glyph-name="edieresis" unicode="&#xeb;" horiz-adv-x="459" 
d="M243 -10q-117 0 -164.5 56.5t-47.5 167.5q0 219 210 219q58 0 94.5 -15.5t57 -43.5t28 -65.5t7.5 -82.5v-43h-274q0 -44 17 -71q23 -37 91 -37q50 0 80 11.5t57 23.5l22 -75q-13 -8 -32.5 -15.5t-43.5 -14.5t-50 -11t-52 -4zM304 261q0 45 -15 69.5t-50 24.5
q-28 0 -45 -8.5t-26.5 -25.5t-11.5 -42q-1 -8 -1 -18h149zM206 512h-117v96h117v-96zM392 512h-117v96h117v-96z" />
    <glyph glyph-name="emacron" unicode="&#x113;" horiz-adv-x="459" 
d="M243 -10q-117 0 -164.5 56.5t-47.5 167.5q0 219 210 219q58 0 94.5 -15.5t57 -43.5t28 -65.5t7.5 -82.5v-43h-274q0 -44 17 -71q23 -37 91 -37q50 0 80 11.5t57 23.5l22 -75q-13 -8 -32.5 -15.5t-43.5 -14.5t-50 -11t-52 -4zM304 261q0 45 -15 69.5t-50 24.5
q-28 0 -45 -8.5t-26.5 -25.5t-11.5 -42q-1 -8 -1 -18h149zM387 515h-296v90h296v-90z" />
    <glyph glyph-name="eogonek" unicode="&#x119;" horiz-adv-x="459" 
d="M441 -189q-19 -9 -47.5 -14.5t-56.5 -5.5q-117 0 -117 97q0 45 23 74q13 16 34 31q-17 -2 -34 -2q-59 0 -99 14t-65.5 42t-36.5 70t-11 97q0 219 210 219q58 0 94.5 -15.5t57 -43.5t28 -65.5t7.5 -82.5v-43h-274q1 -53 25.5 -80t82.5 -27q50 0 80 11.5t57 23.5l22 -75
q-9 -5 -25.5 -16t-30.5 -23q-16 -14 -24.5 -30.5t-8.5 -43.5q0 -22 10.5 -39.5t33.5 -17.5q11 0 22.5 1.5t21.5 5.5zM304 261q0 45 -15 69.5t-50 24.5q-47 0 -65 -24t-19 -70h149z" />
    <glyph glyph-name="dotlessi" unicode="&#x131;" horiz-adv-x="218" 
d="M169 0h-120v423h120v-423z" />
    <glyph glyph-name="iacute" unicode="&#xed;" horiz-adv-x="218" 
d="M254 634l-126 -146h-110l103 146h133zM169 0h-120v423h120v-423z" />
    <glyph glyph-name="icircumflex" unicode="&#xee;" horiz-adv-x="218" 
d="M186 639l83 -146h-99l-55 86h-10l-59 -86h-96l87 146h149zM169 0h-120v423h120v-423z" />
    <glyph glyph-name="idieresis" unicode="&#xef;" horiz-adv-x="218" 
d="M81 512h-105v96h105v-96zM239 512h-104v96h104v-96zM169 0h-120v423h120v-423z" />
    <glyph glyph-name="itilde" unicode="&#x129;" horiz-adv-x="218" 
d="M239 532q-17 -15 -37.5 -23.5t-43.5 -8.5q-16 0 -29.5 4.5t-26 10t-24 10.5t-24.5 5q-20 0 -35.5 -6.5t-27.5 -17.5l-11 81q33 33 81 33q16 0 29.5 -4.5t25.5 -10.5t23.5 -10.5t24.5 -4.5q38 0 63 23zM169 0h-120v423h120v-423z" />
    <glyph glyph-name="imacron" unicode="&#x12b;" horiz-adv-x="218" 
d="M49 423h120v-423h-120v423zM227 515h-236v90h236v-90z" />
    <glyph glyph-name="iogonek" unicode="&#x12f;" horiz-adv-x="218" 
d="M84 -209q-59 0 -88 22.5t-29 72.5q0 19 3.5 34.5t13 29.5t26.5 27t43 25q9 4 22 9t27 9t27.5 7.5t24.5 6.5l15 -34q-13 -4 -30 -12t-29 -18q-31 -24 -31 -62q0 -42 44 -42q11 0 22.5 1.5t21.5 5.5l21 -62q-19 -9 -47.5 -14.5t-56.5 -5.5zM48 608h122v-96h-122v96zM49 423
h120v-423h-120v423z" />
    <glyph glyph-name="kgreenlandic" unicode="&#x138;" horiz-adv-x="446" 
d="M49 0v423h119v-161h32l125 161h132l-168 -203l174 -220h-133l-133 173h-29v-173h-119z" />
    <glyph glyph-name="lacute" unicode="&#x13a;" horiz-adv-x="227" 
d="M217 -3q-5 -1 -10 -1q-5 -1 -11 -1h-10q-39 0 -65.5 9.5t-42 27.5t-22.5 44t-7 59v491l119 16v-504q0 -19 2.5 -30.5t8 -17.5t15 -8t23.5 -2v-83zM285 842l-126 -146h-110l103 146h133z" />
    <glyph glyph-name="lcaron" unicode="&#x13e;" horiz-adv-x="337" 
d="M292 483h-79l21 155h116zM216 -3q-5 -1 -10 -1q-5 -1 -11 -1h-10q-39 0 -65.5 9.5t-42 27.5t-22.5 44t-7 59v491l119 16v-504q0 -19 2.5 -30.5t8 -17.5t15 -8t23.5 -2v-83z" />
    <glyph glyph-name="lslash" unicode="&#x142;" horiz-adv-x="256" 
d="M0 169v95l256 183v-95zM229 -3q-5 -1 -10 -1q-5 -1 -11 -1h-10q-39 0 -65.5 9.5t-42 27.5t-22.5 44t-7 59v491l119 16v-504q0 -19 2.5 -30.5t8 -17.5t15 -8t23.5 -2v-83z" />
    <glyph glyph-name="nacute" unicode="&#x144;" horiz-adv-x="476" 
d="M152 423l3 -30q21 14 46 23q49 17 92 17q41 0 67.5 -10.5t42.5 -29.5t22 -46.5t6 -61.5v-285h-120v259q0 16 -1.5 31t-7 26t-17 17.5t-31.5 6.5q-29 0 -51 -8q-19 -7 -34 -17v-315h-120v309l-8 114h111zM378 634l-126 -146h-110l103 146h133z" />
    <glyph glyph-name="ncaron" unicode="&#x148;" horiz-adv-x="476" 
d="M152 423l3 -30q21 14 46 23q49 17 92 17q41 0 67.5 -10.5t42.5 -29.5t22 -46.5t6 -61.5v-285h-120v259q0 16 -1.5 31t-7 26t-17 17.5t-31.5 6.5q-29 0 -51 -8q-19 -7 -34 -17v-315h-120v309l-8 114h111zM163 488l-93 146h104l60 -86h10l64 86h101l-97 -146h-149z" />
    <glyph glyph-name="eng" unicode="&#x14b;" horiz-adv-x="476" 
d="M152 423l3 -31l2 1q22 14 45 22.5t46.5 12.5t44.5 4q41 0 67.5 -10.5t42.5 -29.5t22 -46t6 -61v-311q0 -51 -10 -85.5t-32 -55.5t-55.5 -29.5t-81.5 -8.5h-7v86h10q35 0 45.5 17t10.5 61v300q0 16 -1.5 30.5t-7 25.5t-17 17.5t-31.5 6.5q-29 0 -51 -8q-19 -8 -34 -17
v-314h-120v309l-8 114h111z" />
    <glyph glyph-name="oacute" unicode="&#xf3;" horiz-adv-x="488" 
d="M234 -10q-59 0 -98 15.5t-62.5 44.5t-33 70t-9.5 93q0 110 53.5 165t168.5 55q59 0 98 -15.5t62.5 -44.5t33.5 -70.5t10 -93.5q0 -110 -54 -164.5t-169 -54.5zM234 71q59 0 80 37t21 109q0 28 -3.5 52.5t-12.5 43t-25 29.5t-41 11q-58 0 -79 -37.5t-21 -109.5
q0 -28 3.5 -52.5t12.5 -43t24.5 -29t40.5 -10.5zM403 634l-126 -146h-110l103 146h133z" />
    <glyph glyph-name="ocircumflex" unicode="&#xf4;" horiz-adv-x="488" 
d="M234 -10q-59 0 -98 15.5t-62.5 44.5t-33 70t-9.5 93q0 110 53.5 165t168.5 55q59 0 98 -15.5t62.5 -44.5t33.5 -70.5t10 -93.5q0 -110 -54 -164.5t-169 -54.5zM234 71q59 0 80 37t21 109q0 28 -3.5 52.5t-12.5 43t-25 29.5t-41 11q-58 0 -79 -37.5t-21 -109.5
q0 -28 3.5 -52.5t12.5 -43t24.5 -29t40.5 -10.5zM326 634l93 -146h-104l-60 86h-10l-64 -86h-101l97 146h149z" />
    <glyph glyph-name="odieresis" unicode="&#xf6;" horiz-adv-x="488" 
d="M234 -10q-59 0 -98 15.5t-62.5 44.5t-33 70t-9.5 93q0 110 53.5 165t168.5 55q59 0 98 -15.5t62.5 -44.5t33.5 -70.5t10 -93.5q0 -110 -54 -164.5t-169 -54.5zM234 71q59 0 80 37t21 109q0 28 -3.5 52.5t-12.5 43t-25 29.5t-41 11q-58 0 -79 -37.5t-21 -109.5
q0 -28 3.5 -52.5t12.5 -43t24.5 -29t40.5 -10.5zM212 512h-117v96h117v-96zM398 512h-117v96h117v-96z" />
    <glyph glyph-name="otilde" unicode="&#xf5;" horiz-adv-x="488" 
d="M234 -10q-59 0 -98 15.5t-62.5 44.5t-33 70t-9.5 93q0 110 53.5 165t168.5 55q59 0 98 -15.5t62.5 -44.5t33.5 -70.5t10 -93.5q0 -110 -54 -164.5t-169 -54.5zM234 71q59 0 80 37t21 109q0 28 -3.5 52.5t-12.5 43t-25 29.5t-41 11q-58 0 -79 -37.5t-21 -109.5
q0 -28 3.5 -52.5t12.5 -43t24.5 -29t40.5 -10.5zM76 568q20 22 50.5 37t65.5 15q20 0 35.5 -4.5t29.5 -10.5t27.5 -10.5t29.5 -4.5q23 0 43 9t38 22l33 -69q-20 -22 -50.5 -37t-65.5 -15q-20 0 -35.5 4.5t-29.5 10.5t-27.5 10.5t-29.5 4.5q-23 0 -43 -9t-38 -22z" />
    <glyph glyph-name="omacron" unicode="&#x14d;" horiz-adv-x="488" 
d="M234 -10q-59 0 -98 15.5t-62.5 44.5t-33 70t-9.5 93q0 110 53.5 165t168.5 55q59 0 98 -15.5t62.5 -44.5t33.5 -70.5t10 -93.5q0 -110 -54 -164.5t-169 -54.5zM234 71q59 0 80 37t21 109q0 28 -3.5 52.5t-12.5 43t-25 29.5t-41 11q-58 0 -79 -37.5t-21 -109.5
q0 -28 3.5 -52.5t12.5 -43t24.5 -29t40.5 -10.5zM400 515h-296v90h296v-90z" />
    <glyph glyph-name="oslash" unicode="&#xf8;" horiz-adv-x="488" 
d="M234 -12q-30 0 -54 4t-44 11l-47 -57l-78 65l49 58q-16 28 -22.5 64t-6.5 80q0 112 53.5 166.5t168.5 54.5q29 0 53 -4t44 -12l48 58l78 -65l-49 -58q16 -28 23 -64t7 -80q0 -112 -54 -166.5t-169 -54.5zM234 64q60 0 83.5 39t23.5 114v20q0 10 -1 19l-152 -181
q19 -11 46 -11zM253 359q-59 0 -82.5 -40t-23.5 -113v-20q0 -9 1 -18l150 180q-17 11 -45 11z" />
    <glyph glyph-name="racute" unicode="&#x155;" horiz-adv-x="348" 
d="M148 423l6 -45q16 20 35 31q41 24 86 24q24 0 42 -4.5t30 -9.5l-28 -94q-22 13 -54 13q-34 0 -65 -17q-16 -8 -30 -24v-297h-120v303l-13 120h111zM342 634l-126 -146h-110l103 146h133z" />
    <glyph glyph-name="rcaron" unicode="&#x159;" horiz-adv-x="348" 
d="M148 423l6 -45q16 20 35 31q41 24 86 24q24 0 42 -4.5t30 -9.5l-28 -94q-22 13 -54 13q-34 0 -65 -17q-16 -8 -30 -24v-297h-120v303l-13 120h111zM102 488l-93 146h104l60 -86h10l64 86h101l-97 -146h-149z" />
    <glyph glyph-name="sacute" unicode="&#x15b;" horiz-adv-x="412" 
d="M202 271q6 -2 16 -5t21.5 -6.5t22 -7t18.5 -5.5q21 -6 40.5 -15t33.5 -23t22.5 -34t8.5 -49q0 -68 -49 -102t-136 -34q-57 0 -97.5 9t-75.5 23l36 84q26 -14 60 -22t76 -8q34 0 52.5 8.5t18.5 29.5q0 27 -57 45q-19 5 -39.5 11t-36.5 11q-22 7 -41 16.5t-33.5 23.5
t-22.5 33.5t-8 46.5q0 66 49.5 99t134.5 33q54 0 93.5 -8.5t74.5 -22.5l-35 -84q-27 14 -61 22.5t-72 8.5q-34 0 -52.5 -9t-18.5 -26q0 -15 14 -24.5t43 -18.5zM380 634l-126 -146h-110l103 146h133z" />
    <glyph glyph-name="scaron" unicode="&#x161;" horiz-adv-x="412" 
d="M202 271q6 -2 16 -5t21.5 -6.5t22 -7t18.5 -5.5q21 -6 40.5 -15t33.5 -23t22.5 -34t8.5 -49q0 -68 -49 -102t-136 -34q-57 0 -97.5 9t-75.5 23l36 84q26 -14 60 -22t76 -8q34 0 52.5 8.5t18.5 29.5q0 27 -57 45q-19 5 -39.5 11t-36.5 11q-22 7 -41 16.5t-33.5 23.5
t-22.5 33.5t-8 46.5q0 66 49.5 99t134.5 33q54 0 93.5 -8.5t74.5 -22.5l-35 -84q-27 14 -61 22.5t-72 8.5q-34 0 -52.5 -9t-18.5 -26q0 -15 14 -24.5t43 -18.5zM138 488l-93 146h104l60 -86h10l64 86h101l-97 -146h-149z" />
    <glyph glyph-name="scedilla" unicode="&#x15f;" horiz-adv-x="412" 
d="M202 271q6 -2 16 -5t21.5 -6.5t22 -7t18.5 -5.5q21 -6 40.5 -15t33.5 -23t22.5 -34t8.5 -49q0 -68 -49 -102t-136 -34q-57 0 -97.5 9t-75.5 23l36 84q26 -14 60 -22t76 -8q34 0 52.5 8.5t18.5 29.5q0 27 -57 45q-19 5 -39.5 11t-36.5 11q-22 7 -41 16.5t-33.5 23.5
t-22.5 33.5t-8 46.5q0 66 49.5 99t134.5 33q54 0 93.5 -8.5t74.5 -22.5l-35 -84q-27 14 -61 22.5t-72 8.5q-34 0 -52.5 -9t-18.5 -26q0 -15 14 -24.5t43 -18.5zM109 -129q16 -5 29 -7.5t29 -2.5q23 0 36 8t13 26q0 12 -4 20t-13 13t-24.5 8t-37.5 7l21 56q83 -5 125.5 -26.5
t42.5 -76.5q0 -56 -34.5 -81t-109.5 -25q-28 0 -55 5t-44 11z" />
    <glyph glyph-name="germandbls" unicode="&#xdf;" horiz-adv-x="528" 
d="M508 126q0 -66 -44.5 -99.5t-125.5 -33.5q-46 0 -81.5 7t-64.5 21l32 82q23 -12 51 -20t60 -8q29 0 46 9.5t17 29.5q0 15 -10.5 26.5t-36.5 21.5q-12 5 -29.5 11.5t-25.5 9.5q-16 6 -32 15.5t-28.5 23t-20 32t-7.5 43.5q0 18 3.5 34t12.5 31t25 29.5t41 28.5
q27 15 42.5 30t15.5 39q0 14 -6.5 24.5t-17 17t-23.5 9.5t-26 3q-30 0 -51 -10.5t-33.5 -28.5t-18.5 -42t-6 -51v-411h-119v398q0 122 60 177.5t175 55.5q35 0 69 -9t60.5 -26.5t43 -44.5t16.5 -63q0 -27 -11 -48t-28.5 -37.5t-38 -28.5t-39.5 -22q-17 -11 -25 -19t-8 -22
t9.5 -22t26.5 -16q13 -5 33 -12.5t34 -13.5q44 -20 64 -46t20 -75z" />
    <glyph glyph-name="tcaron" unicode="&#x165;" horiz-adv-x="374" 
d="M337 483h-79l21 155h118zM202 335v-173q0 -16 1.5 -30.5t7 -25.5t16.5 -17.5t31 -6.5q25 0 46.5 5.5t40.5 15.5l19 -79q-65 -34 -145 -34q-41 0 -67.5 10.5t-41.5 29.5t-21 46t-6 61v198h-72v78l71 8v81l120 21v-100h145v-88h-145z" />
    <glyph glyph-name="uacute" unicode="&#xfa;" horiz-adv-x="472" 
d="M423 114l8 -114h-111l-4 29q-21 -13 -46 -22q-47 -17 -90 -17q-41 0 -67 10.5t-41 29.5t-21 46.5t-6 61.5v285h120v-260q0 -17 1.5 -31.5t6.5 -25.5t16 -17.5t31 -6.5q29 0 50 8q18 7 33 17v316h120v-309zM407 634l-126 -146h-110l103 146h133z" />
    <glyph glyph-name="ucircumflex" unicode="&#xfb;" horiz-adv-x="472" 
d="M423 114l8 -114h-111l-4 29q-21 -13 -46 -22q-47 -17 -90 -17q-41 0 -67 10.5t-41 29.5t-21 46.5t-6 61.5v285h120v-260q0 -17 1.5 -31.5t6.5 -25.5t16 -17.5t31 -6.5q29 0 50 8q18 7 33 17v316h120v-309zM313 634l93 -146h-104l-60 86h-10l-64 -86h-101l97 146h149z" />
    <glyph glyph-name="udieresis" unicode="&#xfc;" horiz-adv-x="472" 
d="M423 114l8 -114h-111l-4 29q-21 -13 -46 -22q-47 -17 -90 -17q-41 0 -67 10.5t-41 29.5t-21 46.5t-6 61.5v285h120v-260q0 -17 1.5 -31.5t6.5 -25.5t16 -17.5t31 -6.5q29 0 50 8q18 7 33 17v316h120v-309zM202 512h-117v96h117v-96zM388 512h-117v96h117v-96z" />
    <glyph glyph-name="utilde" unicode="&#x169;" horiz-adv-x="472" 
d="M423 114l8 -114h-111l-4 29q-21 -13 -46 -22q-47 -17 -90 -17q-41 0 -67 10.5t-41 29.5t-21 46.5t-6 61.5v285h120v-260q0 -17 1.5 -31.5t6.5 -25.5t16 -17.5t31 -6.5q29 0 50 8q18 7 33 17v316h120v-309zM62 568q20 22 50.5 37t65.5 15q20 0 35.5 -4.5t29.5 -10.5
t27.5 -10.5t29.5 -4.5q23 0 43 9t38 22l33 -69q-20 -22 -50.5 -37t-65.5 -15q-20 0 -35.5 4.5t-29.5 10.5t-27.5 10.5t-29.5 4.5q-23 0 -43 -9t-38 -22z" />
    <glyph glyph-name="umacron" unicode="&#x16b;" horiz-adv-x="472" 
d="M423 114l8 -114h-111l-4 29q-21 -13 -46 -22q-47 -17 -90 -17q-41 0 -67 10.5t-41 29.5t-21 46.5t-6 61.5v285h120v-260q0 -17 1.5 -31.5t6.5 -25.5t16 -17.5t31 -6.5q29 0 50 8q18 7 33 17v316h120v-309zM384 515h-296v90h296v-90z" />
    <glyph glyph-name="uogonek" unicode="&#x173;" horiz-adv-x="472" 
d="M423 114l8 -114h-111l-4 29q-21 -13 -46 -22q-47 -17 -90 -17q-41 0 -67 10.5t-41 29.5t-21 46.5t-6 61.5v285h120v-260q0 -17 1.5 -31.5t6.5 -25.5t16 -17.5t31 -6.5q29 0 50 8q18 7 33 17v316h120v-309zM452 -189q-19 -9 -47.5 -14.5t-56.5 -5.5q-59 0 -88 22.5
t-29 72.5q0 38 20 64.5t73 51.5q24 11 48.5 18.5t47.5 12.5l11 -33q-16 -8 -30 -16t-27 -18q-17 -13 -24 -26t-7 -32q0 -42 44 -42q11 0 22.5 1.5t21.5 5.5z" />
    <glyph glyph-name="yacute" unicode="&#xfd;" horiz-adv-x="435" 
d="M0 423h133l87 -286h9l84 286h122l-167 -457q-15 -40 -31 -72.5t-39.5 -56t-55.5 -36t-78 -12.5q-15 0 -31.5 1t-30.5 6l15 80q16 -3 35 -3q31 0 47.5 9.5t25.5 21.5q11 14 22 41.5t21 54.5zM389 634l-126 -146h-110l103 146h133z" />
    <glyph glyph-name="zacute" unicode="&#x17a;" horiz-adv-x="417" 
d="M397 354l-235 -266h237v-88h-379v69l234 266h-223v88h366v-69zM376 634l-126 -146h-110l103 146h133z" />
    <glyph glyph-name="zcaron" unicode="&#x17e;" horiz-adv-x="417" 
d="M397 354l-235 -266h237v-88h-379v69l234 266h-223v88h366v-69zM148 488l-93 146h104l60 -86h10l64 86h101l-97 -146h-149z" />
    <glyph glyph-name="zdotaccent" unicode="&#x17c;" horiz-adv-x="417" 
d="M397 354l-235 -266h237v-88h-379v69l234 266h-223v88h366v-69zM283 512h-122v96h122v-96z" />
    <glyph glyph-name="thorn" unicode="&#xfe;" horiz-adv-x="480" 
d="M167 210v-400l-120 -15v415h120zM245 -10q-30 0 -57 8q-23 7 -44 21l-8 -19h-89v626l120 16v-234q13 7 26 12q37 13 79 13q91 0 134 -56.5t43 -152.5q0 -51 -11 -94t-35.5 -74t-63.5 -48.5t-94 -17.5zM182 80q22 -7 41 -7q22 0 40.5 7t32 23.5t21.5 43.5t8 68
q0 134 -93 134q-29 0 -52 -14q-7 -4 -13 -10v-238q8 -4 15 -7z" />
    <glyph glyph-name="eth" unicode="&#xf0;" horiz-adv-x="489" 
d="M245 -12q-59 0 -99.5 15.5t-66 45t-37 71t-11.5 93.5q0 109 55 164t152 55q44 0 71 -14q3 -2 7 -3q-7 16 -16 32q-20 33 -57 59l-155 -72l-29 58l111 51q-50 17 -122 23l16 81q84 -9 156 -33q29 -9 55 -23l117 55l31 -57l-84 -39l6 -5q53 -46 83 -118.5t30 -178.5
q0 -72 -14.5 -122t-42 -80.5t-67 -44t-89.5 -13.5zM313 331q-13 6 -28.5 10t-30.5 4q-56 0 -78.5 -34t-22.5 -105q0 -29 5 -53.5t16 -43t28.5 -29t42.5 -10.5q29 0 47.5 12t29 33.5t14.5 51t4 65.5q0 44 -4 87q-10 6 -23 12z" />
    <glyph glyph-name="Aacute" unicode="&#xc1;" horiz-adv-x="602" 
d="M463 0l-51 158h-227l-51 -158h-129l218 608h162l212 -608h-134zM296 514l-79 -259h163l-76 259h-8zM465 820l-126 -146h-110l103 146h133z" />
    <glyph glyph-name="Acircumflex" unicode="&#xc2;" horiz-adv-x="602" 
d="M463 0l-51 158h-227l-51 -158h-129l218 608h162l212 -608h-134zM296 514l-79 -259h163l-76 259h-8zM382 819l93 -146h-104l-60 86h-10l-64 -86h-101l97 146h149z" />
    <glyph glyph-name="Abreve" unicode="&#x102;" horiz-adv-x="602" 
d="M463 0l-51 158h-227l-51 -158h-129l218 608h162l212 -608h-134zM296 514l-79 -259h163l-76 259h-8zM456 818q0 -78 -34.5 -116t-120.5 -38t-120.5 38t-34.5 116h90q2 -35 15 -55.5t50 -20.5t50 20.5t15 55.5h90z" />
    <glyph glyph-name="Adieresis" unicode="&#xc4;" horiz-adv-x="602" 
d="M463 0l-51 158h-227l-51 -158h-129l218 608h162l212 -608h-134zM296 514l-79 -259h163l-76 259h-8zM266 697h-117v96h117v-96zM452 697h-117v96h117v-96z" />
    <glyph glyph-name="Atilde" unicode="&#xc3;" horiz-adv-x="602" 
d="M463 0l-51 158h-227l-51 -158h-129l218 608h162l212 -608h-134zM296 514l-79 -259h163l-76 259h-8zM128 753q20 22 50.5 37t65.5 15q20 0 35.5 -4.5t29.5 -10.5t27.5 -10.5t29.5 -4.5q23 0 43 9t38 22l33 -69q-20 -22 -50.5 -37t-65.5 -15q-20 0 -35.5 4.5t-29.5 10.5
t-27.5 10.5t-29.5 4.5q-23 0 -43 -9t-38 -22z" />
    <glyph glyph-name="Amacron" unicode="&#x100;" horiz-adv-x="602" 
d="M463 0l-51 158h-227l-51 -158h-129l218 608h162l212 -608h-134zM296 514l-79 -259h163l-76 259h-8zM453 700h-296v90h296v-90z" />
    <glyph glyph-name="Aring" unicode="&#xc5;" horiz-adv-x="602" 
d="M463 0l-51 158h-227l-51 -158h-129l218 608h162l212 -608h-134zM296 514l-79 -259h163l-76 259h-8zM297 652q-60 0 -84 29t-24 73q0 48 30 75t87 27q60 0 84 -29.5t24 -73.5q0 -48 -30 -74.5t-87 -26.5zM300 715q41 0 41 39q0 38 -38 38q-42 0 -42 -38q0 -39 39 -39z" />
    <glyph glyph-name="Aogonek" unicode="&#x104;" horiz-adv-x="602" 
d="M606 -189q-19 -9 -47.5 -14.5t-56.5 -5.5q-59 0 -88 22.5t-29 72.5q0 19 3.5 34.5t13 29.5t26.5 27t43 25q9 4 23 9t29 9.5t29 8t25 6.5l20 -35q-13 -4 -30.5 -11.5t-34.5 -18.5q-20 -13 -27.5 -28t-7.5 -34q0 -42 44 -42q11 0 22.5 1.5t21.5 5.5zM463 0l-51 158h-227
l-51 -158h-129l218 608h162l212 -608h-134zM296 514l-79 -259h163l-76 259h-8z" />
    <glyph glyph-name="AE" unicode="&#xc6;" horiz-adv-x="864" 
d="M816 96v-96h-377l-8 158h-224l-92 -158h-125l361 608h455v-96h-274l9 -152h256v-94h-251l9 -170h261zM406 512l-144 -257h165l-13 257h-8z" />
    <glyph glyph-name="Cacute" unicode="&#x106;" horiz-adv-x="563" 
d="M321 -10q-149 0 -214 81t-65 233q0 157 73.5 235.5t210.5 78.5q28 0 57.5 -5t57.5 -15.5t53 -27t43 -38.5l-72 -70q-25 29 -58 44.5t-77 15.5q-162 0 -162 -227q0 -202 161 -202q49 0 92 11.5t81 28.5l28 -94q-39 -22 -96 -35.5t-113 -13.5zM495 820l-126 -146h-110
l103 146h133z" />
    <glyph glyph-name="Ccaron" unicode="&#x10c;" horiz-adv-x="563" 
d="M321 -10q-149 0 -214 81t-65 233q0 157 73.5 235.5t210.5 78.5q28 0 57.5 -5t57.5 -15.5t53 -27t43 -38.5l-72 -70q-25 29 -58 44.5t-77 15.5q-162 0 -162 -227q0 -202 161 -202q49 0 92 11.5t81 28.5l28 -94q-39 -22 -96 -35.5t-113 -13.5zM247 673l-93 146h104l60 -86
h10l64 86h101l-97 -146h-149z" />
    <glyph glyph-name="Ccedilla" unicode="&#xc7;" horiz-adv-x="563" 
d="M321 -10q-149 0 -214 81t-65 233q0 157 73.5 235.5t210.5 78.5q28 0 57.5 -5t57.5 -15.5t53 -27t43 -38.5l-72 -70q-25 29 -58 44.5t-77 15.5q-162 0 -162 -227q0 -202 161 -202q49 0 92 11.5t81 28.5l28 -94q-39 -22 -96 -35.5t-113 -13.5zM211 -129q16 -5 29 -7.5
t29 -2.5q23 0 36 8t13 26q0 12 -4 20t-13 13t-24.5 8t-37.5 7l21 56q83 -5 125.5 -26.5t42.5 -76.5q0 -56 -34.5 -81t-109.5 -25q-28 0 -55 5t-44 11z" />
    <glyph glyph-name="Dcaron" unicode="&#x10e;" horiz-adv-x="620" 
d="M262 608q75 0 134 -16.5t99.5 -53t61.5 -95t21 -141.5q0 -85 -26 -143t-71.5 -93t-107.5 -50.5t-135 -15.5h-173v608h197zM234 95q50 0 90 10.5t68 35t43 66.5t15 105q0 103 -51 151.5t-140 48.5h-72v-417h47zM211 673l-93 146h104l60 -86h10l64 86h101l-97 -146h-149z
" />
    <glyph glyph-name="Dcroat" unicode="&#x110;" horiz-adv-x="632" 
d="M322 257h-307v95h307v-95zM274 608q75 0 134 -16.5t99.5 -53t61.5 -95t21 -141.5q0 -85 -26 -143t-71.5 -93t-107.5 -50.5t-135 -15.5h-173v608h197zM246 95q50 0 90 10.5t68 35t43 66.5t15 105q0 103 -51 151.5t-140 48.5h-72v-417h47z" />
    <glyph glyph-name="Eacute" unicode="&#xc9;" horiz-adv-x="514" 
d="M466 96v-96h-401v608h391v-96h-269v-152h260v-94h-260v-170h279zM426 820l-126 -146h-110l103 146h133z" />
    <glyph glyph-name="Ecaron" unicode="&#x11a;" horiz-adv-x="514" 
d="M466 96v-96h-401v608h391v-96h-269v-152h260v-94h-260v-170h279zM191 673l-93 146h104l60 -86h10l64 86h101l-97 -146h-149z" />
    <glyph glyph-name="Edieresis" unicode="&#xcb;" horiz-adv-x="514" 
d="M466 96v-96h-401v608h391v-96h-269v-152h260v-94h-260v-170h279zM228 683h-117v96h117v-96zM414 683h-117v96h117v-96z" />
    <glyph glyph-name="Emacron" unicode="&#x112;" horiz-adv-x="514" 
d="M466 96v-96h-401v608h391v-96h-269v-152h260v-94h-260v-170h279zM410 700h-296v90h296v-90z" />
    <glyph glyph-name="Eogonek" unicode="&#x118;" horiz-adv-x="514" 
d="M466 96v-96h-401v608h391v-96h-269v-152h260v-94h-260v-170h279zM487 -189q-19 -9 -47.5 -14.5t-56.5 -5.5q-59 0 -88 22.5t-29 72.5q0 38 20 64.5t73 51.5q24 11 48.5 18.5t47.5 12.5l11 -33q-16 -8 -30 -16t-27 -18q-17 -13 -24 -26t-7 -32q0 -42 44 -42q11 0 22.5 1.5
t21.5 5.5z" />
    <glyph glyph-name="Iacute" unicode="&#xcd;" horiz-adv-x="252" 
d="M65 608h122v-608h-122v608zM298 820l-126 -146h-110l103 146h133z" />
    <glyph glyph-name="Icircumflex" unicode="&#xce;" horiz-adv-x="252" 
d="M65 608h122v-608h-122v608zM204 819l93 -146h-104l-60 86h-10l-64 -86h-101l97 146h149z" />
    <glyph glyph-name="Idieresis" unicode="&#xcf;" horiz-adv-x="252" 
d="M65 608h122v-608h-122v608zM93 683h-117v96h117v-96zM279 683h-117v96h117v-96z" />
    <glyph glyph-name="Itilde" unicode="&#x128;" horiz-adv-x="252" 
d="M65 608h122v-608h-122v608zM-49 753q20 22 50.5 37t65.5 15q20 0 35.5 -4.5t29.5 -10.5t27.5 -10.5t29.5 -4.5q23 0 43 9t38 22l33 -69q-20 -22 -50.5 -37t-65.5 -15q-20 0 -35.5 4.5t-29.5 10.5t-27.5 10.5t-29.5 4.5q-23 0 -43 -9t-38 -22z" />
    <glyph glyph-name="Imacron" unicode="&#x12a;" horiz-adv-x="252" 
d="M65 608h122v-608h-122v608zM275 700h-296v90h296v-90z" />
    <glyph glyph-name="Iogonek" unicode="&#x12e;" horiz-adv-x="252" 
d="M196 -189q-19 -9 -47.5 -14.5t-56.5 -5.5q-59 0 -88 22.5t-29 70.5q0 19 4 34.5t14.5 29.5t28 27t43.5 25q9 4 22.5 9.5t27.5 10t27.5 8.5t24.5 7l20 -35q-13 -4 -30.5 -11.5t-34.5 -18.5q-20 -13 -27.5 -28t-7.5 -34q0 -42 44 -42q11 0 22.5 1.5t21.5 5.5zM65 608h122
v-608h-122v608z" />
    <glyph glyph-name="Lacute" unicode="&#x139;" horiz-adv-x="441" 
d="M436 96v-96h-371v608h122v-512h249zM336 820l-126 -146h-110l103 146h133z" />
    <glyph glyph-name="Lcaron" unicode="&#x13d;" horiz-adv-x="441" 
d="M321 483h-89l21 155h128zM436 96v-96h-371v608h122v-512h249z" />
    <glyph glyph-name="Lslash" unicode="&#x141;" horiz-adv-x="438" 
d="M0 167v95l319 185v-95zM433 96v-96h-371v608h122v-512h249z" />
    <glyph glyph-name="Nacute" unicode="&#x143;" horiz-adv-x="673" 
d="M608 608v-608h-211l-202 514h-8v-514h-122v608h211l202 -514h8v514h122zM513 820l-126 -146h-110l103 146h133z" />
    <glyph glyph-name="Ncaron" unicode="&#x147;" horiz-adv-x="673" 
d="M608 608v-608h-211l-202 514h-8v-514h-122v608h211l202 -514h8v514h122zM252 673l-93 146h104l60 -86h10l64 86h101l-97 -146h-149z" />
    <glyph glyph-name="Eng" unicode="&#x14a;" horiz-adv-x="673" 
d="M403 -119h10q35 0 54 17t19 61v105h122v-90q0 -51 -11 -85.5t-35 -55.5t-61.5 -29.5t-90.5 -8.5h-7v86zM608 608v-608h-211l-202 514h-8v-514h-122v608h211l202 -514h8v514h122z" />
    <glyph glyph-name="Oacute" unicode="&#xd3;" horiz-adv-x="638" 
d="M42 307q0 156 70.5 233.5t216.5 77.5q74 0 125 -22t82.5 -63t45.5 -100t14 -132q0 -155 -71 -233t-217 -78q-75 0 -125.5 22t-82 63.5t-45 100t-13.5 131.5zM469 313q0 43 -6.5 81.5t-22 67.5t-42.5 46t-68 17q-46 0 -77 -15t-50.5 -44t-28 -71.5t-8.5 -97.5
q0 -44 6.5 -82.5t23 -67t43 -45.5t67.5 -17q47 0 78.5 15t50 44t26.5 71.5t8 97.5zM465 820l-126 -146h-110l103 146h133z" />
    <glyph glyph-name="Ocircumflex" unicode="&#xd4;" horiz-adv-x="638" 
d="M42 307q0 156 70.5 233.5t216.5 77.5q74 0 125 -22t82.5 -63t45.5 -100t14 -132q0 -155 -71 -233t-217 -78q-75 0 -125.5 22t-82 63.5t-45 100t-13.5 131.5zM469 313q0 43 -6.5 81.5t-22 67.5t-42.5 46t-68 17q-46 0 -77 -15t-50.5 -44t-28 -71.5t-8.5 -97.5
q0 -44 6.5 -82.5t23 -67t43 -45.5t67.5 -17q47 0 78.5 15t50 44t26.5 71.5t8 97.5zM397 819l93 -146h-104l-60 86h-10l-64 -86h-101l97 146h149z" />
    <glyph glyph-name="Odieresis" unicode="&#xd6;" horiz-adv-x="638" 
d="M42 307q0 156 70.5 233.5t216.5 77.5q74 0 125 -22t82.5 -63t45.5 -100t14 -132q0 -155 -71 -233t-217 -78q-75 0 -125.5 22t-82 63.5t-45 100t-13.5 131.5zM469 313q0 43 -6.5 81.5t-22 67.5t-42.5 46t-68 17q-46 0 -77 -15t-50.5 -44t-28 -71.5t-8.5 -97.5
q0 -44 6.5 -82.5t23 -67t43 -45.5t67.5 -17q47 0 78.5 15t50 44t26.5 71.5t8 97.5zM286 683h-117v96h117v-96zM472 683h-117v96h117v-96z" />
    <glyph glyph-name="Otilde" unicode="&#xd5;" horiz-adv-x="638" 
d="M42 307q0 156 70.5 233.5t216.5 77.5q74 0 125 -22t82.5 -63t45.5 -100t14 -132q0 -155 -71 -233t-217 -78q-75 0 -125.5 22t-82 63.5t-45 100t-13.5 131.5zM469 313q0 43 -6.5 81.5t-22 67.5t-42.5 46t-68 17q-46 0 -77 -15t-50.5 -44t-28 -71.5t-8.5 -97.5
q0 -44 6.5 -82.5t23 -67t43 -45.5t67.5 -17q47 0 78.5 15t50 44t26.5 71.5t8 97.5zM148 753q20 22 50.5 37t65.5 15q20 0 35.5 -4.5t29.5 -10.5t27.5 -10.5t29.5 -4.5q23 0 43 9t38 22l33 -69q-20 -22 -50.5 -37t-65.5 -15q-20 0 -35.5 4.5t-29.5 10.5t-27.5 10.5t-29.5 4.5
q-23 0 -43 -9t-38 -22z" />
    <glyph glyph-name="Omacron" unicode="&#x14c;" horiz-adv-x="638" 
d="M42 307q0 156 70.5 233.5t216.5 77.5q74 0 125 -22t82.5 -63t45.5 -100t14 -132q0 -155 -71 -233t-217 -78q-75 0 -125.5 22t-82 63.5t-45 100t-13.5 131.5zM469 313q0 43 -6.5 81.5t-22 67.5t-42.5 46t-68 17q-46 0 -77 -15t-50.5 -44t-28 -71.5t-8.5 -97.5
q0 -44 6.5 -82.5t23 -67t43 -45.5t67.5 -17q47 0 78.5 15t50 44t26.5 71.5t8 97.5zM463 700h-296v90h296v-90z" />
    <glyph glyph-name="Oslash" unicode="&#xd8;" horiz-adv-x="638" 
d="M42 306q0 157 70.5 235t216.5 78q74 0 125 -22q8 -4 15 -8l57 77l73 -48l-63 -85q32 -41 46 -100t14 -133q0 -155 -71 -234t-217 -79q-75 0 -126 22q-12 6 -23 12l-56 -75l-73 48l64 87q-27 39 -39 93q-13 59 -13 132zM474 312q0 43 -6 83q-2 19 -8 35l-240 -326
q6 -5 13 -9q29 -18 73 -18q47 0 79 16t52 46t28.5 73.5t8.5 99.5zM403 513q-28 18 -73 18q-46 0 -78 -16t-52.5 -46t-29.5 -74t-9 -99q0 -44 6 -84q2 -13 5 -25l237 321q-3 3 -6 5z" />
    <glyph glyph-name="Racute" unicode="&#x154;" horiz-adv-x="551" 
d="M65 0v608h238q103 0 159.5 -42t56.5 -136q0 -41 -12 -72.5t-33.5 -54t-51.5 -37.5q-7 -3 -14 -7l130 -259h-132l-118 240h-102v-240h-121zM298 334q18 0 35.5 5t30.5 16t21 29.5t8 45.5q0 24 -8.5 40t-22.5 25.5t-31 13t-33 3.5h-112v-178h112zM430 820l-126 -146h-110
l103 146h133z" />
    <glyph glyph-name="Rcaron" unicode="&#x158;" horiz-adv-x="551" 
d="M65 0v608h238q103 0 159.5 -42t56.5 -136q0 -41 -12 -72.5t-33.5 -54t-51.5 -37.5q-7 -3 -14 -7l130 -259h-132l-118 240h-102v-240h-121zM298 334q18 0 35.5 5t30.5 16t21 29.5t8 45.5q0 24 -8.5 40t-22.5 25.5t-31 13t-33 3.5h-112v-178h112zM194 673l-93 146h104
l60 -86h10l64 86h101l-97 -146h-149z" />
    <glyph glyph-name="Sacute" unicode="&#x15a;" horiz-adv-x="509" 
d="M312 221q-36 17 -76.5 30.5t-80.5 30.5q-29 13 -50.5 27t-35.5 33t-21.5 43.5t-7.5 58.5q0 81 59.5 127.5t171.5 46.5q48 0 103 -11t98 -35l-42 -90q-29 17 -70.5 28.5t-87.5 11.5q-59 0 -84.5 -18.5t-25.5 -49.5q0 -30 19 -46t39 -24q30 -13 71.5 -27.5t78.5 -31.5
q22 -11 42 -23.5t35 -31t23.5 -44t8.5 -61.5q0 -81 -62.5 -128t-172.5 -47q-50 0 -106.5 12t-107.5 38l45 91q42 -21 82.5 -31.5t84.5 -10.5q64 0 90.5 20t26.5 50q0 13 -5 23.5t-12.5 18t-15.5 12.5t-14 8zM433 820l-126 -146h-110l103 146h133z" />
    <glyph glyph-name="Scaron" unicode="&#x160;" horiz-adv-x="509" 
d="M312 221q-36 17 -76.5 30.5t-80.5 30.5q-29 13 -50.5 27t-35.5 33t-21.5 43.5t-7.5 58.5q0 81 59.5 127.5t171.5 46.5q48 0 103 -11t98 -35l-42 -90q-29 17 -70.5 28.5t-87.5 11.5q-59 0 -84.5 -18.5t-25.5 -49.5q0 -30 19 -46t39 -24q30 -13 71.5 -27.5t78.5 -31.5
q22 -11 42 -23.5t35 -31t23.5 -44t8.5 -61.5q0 -81 -62.5 -128t-172.5 -47q-50 0 -106.5 12t-107.5 38l45 91q42 -21 82.5 -31.5t84.5 -10.5q64 0 90.5 20t26.5 50q0 13 -5 23.5t-12.5 18t-15.5 12.5t-14 8zM185 673l-93 146h104l60 -86h10l64 86h101l-97 -146h-149z" />
    <glyph glyph-name="Scedilla" unicode="&#x15e;" horiz-adv-x="509" 
d="M312 221q-36 17 -76.5 30.5t-80.5 30.5q-29 13 -50.5 27t-35.5 33t-21.5 43.5t-7.5 58.5q0 81 59.5 127.5t171.5 46.5q48 0 103 -11t98 -35l-42 -90q-29 17 -70.5 28.5t-87.5 11.5q-59 0 -84.5 -18.5t-25.5 -49.5q0 -30 19 -46t39 -24q30 -13 71.5 -27.5t78.5 -31.5
q22 -11 42 -23.5t35 -31t23.5 -44t8.5 -61.5q0 -81 -62.5 -128t-172.5 -47q-50 0 -106.5 12t-107.5 38l45 91q42 -21 82.5 -31.5t84.5 -10.5q64 0 90.5 20t26.5 50q0 13 -5 23.5t-12.5 18t-15.5 12.5t-14 8zM152 -129q16 -5 29 -7.5t29 -2.5q23 0 36 8t13 26q0 12 -4 20
t-13 13t-24.5 8t-37.5 7l21 56q83 -5 125.5 -26.5t42.5 -76.5q0 -56 -34.5 -81t-109.5 -25q-28 0 -55 5t-44 11z" />
    <glyph glyph-name="Tcaron" unicode="&#x164;" horiz-adv-x="490" 
d="M485 608v-96h-179v-512h-122v512h-179v96h480zM172 673l-93 146h104l60 -86h10l64 86h101l-97 -146h-149z" />
    <glyph glyph-name="Uacute" unicode="&#xda;" horiz-adv-x="597" 
d="M540 608v-366q0 -67 -16.5 -114.5t-48.5 -78t-78.5 -45t-105.5 -14.5q-118 0 -176 60.5t-58 197.5v360h122v-374q0 -71 25.5 -110.5t85.5 -39.5q70 0 99 37.5t29 127.5v359h122zM455 820l-126 -146h-110l103 146h133z" />
    <glyph glyph-name="Ucircumflex" unicode="&#xdb;" horiz-adv-x="597" 
d="M540 608v-366q0 -67 -16.5 -114.5t-48.5 -78t-78.5 -45t-105.5 -14.5q-118 0 -176 60.5t-58 197.5v360h122v-374q0 -71 25.5 -110.5t85.5 -39.5q70 0 99 37.5t29 127.5v359h122zM373 819l93 -146h-104l-60 86h-10l-64 -86h-101l97 146h149z" />
    <glyph glyph-name="Udieresis" unicode="&#xdc;" horiz-adv-x="597" 
d="M540 608v-366q0 -67 -16.5 -114.5t-48.5 -78t-78.5 -45t-105.5 -14.5q-118 0 -176 60.5t-58 197.5v360h122v-374q0 -71 25.5 -110.5t85.5 -39.5q70 0 99 37.5t29 127.5v359h122zM265 683h-117v96h117v-96zM451 683h-117v96h117v-96z" />
    <glyph glyph-name="Utilde" unicode="&#x168;" horiz-adv-x="597" 
d="M540 608v-366q0 -67 -16.5 -114.5t-48.5 -78t-78.5 -45t-105.5 -14.5q-118 0 -176 60.5t-58 197.5v360h122v-374q0 -71 25.5 -110.5t85.5 -39.5q70 0 99 37.5t29 127.5v359h122zM125 753q20 22 50.5 37t65.5 15q20 0 35.5 -4.5t29.5 -10.5t27.5 -10.5t29.5 -4.5
q23 0 43 9t38 22l33 -69q-20 -22 -50.5 -37t-65.5 -15q-20 0 -35.5 4.5t-29.5 10.5t-27.5 10.5t-29.5 4.5q-23 0 -43 -9t-38 -22z" />
    <glyph glyph-name="Umacron" unicode="&#x16a;" horiz-adv-x="597" 
d="M540 608v-366q0 -67 -16.5 -114.5t-48.5 -78t-78.5 -45t-105.5 -14.5q-118 0 -176 60.5t-58 197.5v360h122v-374q0 -71 25.5 -110.5t85.5 -39.5q70 0 99 37.5t29 127.5v359h122zM447 700h-296v90h296v-90z" />
    <glyph glyph-name="Uogonek" unicode="&#x172;" horiz-adv-x="597" 
d="M432 -189q-19 -9 -47.5 -14.5t-56.5 -5.5q-117 0 -117 97q0 44 24 70.5t77 52.5q15 8 41.5 16.5t44.5 12.5v-35q-7 -2 -22.5 -9t-26.5 -16q-14 -13 -20 -27t-6 -34q0 -22 10.5 -37.5t33.5 -15.5q11 0 22.5 1.5t21.5 5.5zM540 608v-366q0 -67 -16.5 -114.5t-48.5 -78
t-78.5 -45t-105.5 -14.5q-118 0 -176 60.5t-58 197.5v360h122v-374q0 -71 25.5 -110.5t85.5 -39.5q70 0 99 37.5t29 127.5v359h122z" />
    <glyph glyph-name="Yacute" unicode="&#xdd;" horiz-adv-x="557" 
d="M339 256v-256h-122v256q-25 39 -53 85t-56.5 92.5t-56 91.5t-51.5 83h140l135 -243h8l134 243h140zM445 820l-126 -146h-110l103 146h133z" />
    <glyph glyph-name="Zacute" unicode="&#x179;" horiz-adv-x="523" 
d="M498 532l-324 -437h323v-95h-472v76l324 438h-302v94h451v-76zM434 820l-126 -146h-110l103 146h133z" />
    <glyph glyph-name="Zcaron" unicode="&#x17d;" horiz-adv-x="523" 
d="M498 532l-324 -437h323v-95h-472v76l324 438h-302v94h451v-76zM204 673l-93 146h104l60 -86h10l64 86h101l-97 -146h-149z" />
    <glyph glyph-name="Zdotaccent" unicode="&#x17b;" horiz-adv-x="523" 
d="M498 532l-324 -437h323v-95h-472v76l324 438h-302v94h451v-76zM343 684h-122v96h122v-96z" />
    <glyph glyph-name="Thorn" unicode="&#xde;" horiz-adv-x="531" 
d="M186 0h-121v608h121v-106h107q103 0 159.5 -47.5t56.5 -141.5q0 -47 -15.5 -84.5t-42.5 -63t-64.5 -39t-81.5 -13.5h-119v-113zM285 208q18 0 35.5 5.5t31 18t22 32.5t8.5 49q0 27 -9 44.5t-23 28.5t-31 15.5t-34 4.5h-99v-198h99z" />
    <glyph glyph-name="Eth" unicode="&#xd0;" horiz-adv-x="632" 
d="M322 257h-307v95h307v-95zM274 608q75 0 134 -16.5t99.5 -53t61.5 -95t21 -141.5q0 -85 -26 -143t-71.5 -93t-107.5 -50.5t-135 -15.5h-173v608h197zM246 95q50 0 90 10.5t68 35t43 66.5t15 105q0 103 -51 151.5t-140 48.5h-72v-417h47z" />
    <glyph glyph-name="Euro" unicode="&#x20ac;" horiz-adv-x="574" 
d="M374 -10q-149 0 -214 81q-42 52 -57 134h-95l24 67h63v32v22h-87l24 67h70q15 92 64 146q72 79 209 79q44 0 90 -12t83 -38l-37 -102q-25 26 -57.5 41t-74.5 15q-81 0 -120 -57q-20 -29 -30 -72h256l-25 -67h-240v-31v-23h221l-25 -67h-186q31 -113 153 -113q38 0 74 7
t68 22v-107q-35 -11 -74 -17.5t-77 -6.5z" />
    <glyph glyph-name="dollar" unicode="$" horiz-adv-x="499" 
d="M221 696h67v-82q38 -2 81 -9q55 -10 98 -33l-42 -90q-29 16 -71 26q-32 8 -66 10v-162q40 -15 77 -32q22 -11 42 -23.5t35 -30.5t23.5 -43.5t8.5 -61.5q0 -81 -62 -127q-48 -36 -124 -43v-77h-67v74q-43 2 -89 11q-56 11 -107 37l45 91q42 -20 82 -30q33 -8 69 -10v163
q-36 13 -71 28q-29 13 -50.5 27t-35.5 33t-21.5 43.5t-7.5 58.5q0 79 59 125q47 36 127 44v83zM327 110q27 20 27 49q0 13 -5 23.5t-12.5 18t-15.5 12.5t-14 8q-10 4 -19 8v-134q25 5 39 15zM182 501q-25 -18 -25 -47q0 -30 19 -46t39 -24l6 -3v134q-25 -4 -39 -14z" />
    <glyph glyph-name="grave" unicode="`" horiz-adv-x="500" 
d="M251 634l103 -146h-110l-126 146h133z" />
    <glyph glyph-name="agrave" unicode="&#xe0;" horiz-adv-x="446" 
d="M437 0q-18 -4 -45 -4q-36 0 -59.5 10.5t-37.5 32.5q-23 -22 -58.5 -35.5t-66.5 -13.5q-47 0 -75 11t-44 30t-21 43t-5 50q0 42 13.5 68.5t38.5 41.5t60 21t78 6q14 0 31 -0.5t30 -1.5v20q0 34 -19.5 52t-62.5 18q-36 0 -69 -9t-59 -23l-24 73q34 18 83 30.5t99 12.5
t83 -9t53 -29.5t28.5 -54.5t8.5 -85v-130q0 -26 10 -35.5t30 -9.5v-80zM216 183q-38 0 -52.5 -14.5t-14.5 -40.5q0 -27 10.5 -42t39.5 -15q16 0 38 6.5t39 22.5v80q-16 2 -31 2.5t-29 0.5zM219 634l103 -146h-110l-126 146h133z" />
    <glyph glyph-name="ccircumflex" unicode="&#x109;" horiz-adv-x="429" 
d="M400 29q-23 -16 -64 -27.5t-93 -11.5q-116 0 -164 55t-48 160q0 115 58.5 171.5t170.5 56.5q48 0 89 -15.5t62 -41.5l-67 -64q-17 21 -38 29.5t-47 8.5q-54 0 -80.5 -33.5t-26.5 -111.5q0 -63 23 -97.5t80 -34.5q38 0 65.5 8.5t57.5 23.5zM318 634l93 -146h-104l-60 86
h-10l-64 -86h-101l97 146h149z" />
    <glyph glyph-name="cdotaccent" unicode="&#x10b;" horiz-adv-x="429" 
d="M400 29q-23 -16 -64 -27.5t-93 -11.5q-116 0 -164 55t-48 160q0 115 58.5 171.5t170.5 56.5q48 0 89 -15.5t62 -41.5l-67 -64q-17 21 -38 29.5t-47 8.5q-54 0 -80.5 -33.5t-26.5 -111.5q0 -63 23 -97.5t80 -34.5q38 0 65.5 8.5t57.5 23.5zM301 512h-122v96h122v-96z" />
    <glyph glyph-name="egrave" unicode="&#xe8;" horiz-adv-x="459" 
d="M243 -10q-117 0 -164.5 56.5t-47.5 167.5q0 219 210 219q58 0 94.5 -15.5t57 -43.5t28 -65.5t7.5 -82.5v-43h-274q0 -44 17 -71q23 -37 91 -37q50 0 80 11.5t57 23.5l22 -75q-13 -8 -32.5 -15.5t-43.5 -14.5t-50 -11t-52 -4zM304 261q0 45 -15 69.5t-50 24.5
q-28 0 -45 -8.5t-26.5 -25.5t-11.5 -42q-1 -8 -1 -18h149zM225 634l103 -146h-110l-126 146h133z" />
    <glyph glyph-name="ecircumflex" unicode="&#xea;" horiz-adv-x="459" 
d="M243 -10q-117 0 -164.5 56.5t-47.5 167.5q0 219 210 219q58 0 94.5 -15.5t57 -43.5t28 -65.5t7.5 -82.5v-43h-274q0 -44 17 -71q23 -37 91 -37q50 0 80 11.5t57 23.5l22 -75q-13 -8 -32.5 -15.5t-43.5 -14.5t-50 -11t-52 -4zM304 261q0 45 -15 69.5t-50 24.5
q-28 0 -45 -8.5t-26.5 -25.5t-11.5 -42q-1 -8 -1 -18h149zM317 634l93 -146h-104l-60 86h-10l-64 -86h-101l97 146h149z" />
    <glyph glyph-name="gbreve" unicode="&#x11f;" horiz-adv-x="479" 
d="M431 423v-433q0 -56 -16.5 -94t-45.5 -62t-69 -34.5t-88 -10.5q-45 0 -82 7t-64 18l31 81q17 -6 45 -12t64 -6q48 0 76.5 20.5t28.5 71.5v36q-20 -7 -43.5 -11t-48.5 -4q-99 0 -143.5 54.5t-44.5 151.5q0 52 10.5 95.5t34.5 75t64 49t100 17.5q29 0 52.5 -7t41.5 -15
l4 12h93zM311 343q-25 7 -49 7q-58 0 -83 -34t-25 -113q0 -58 23 -94.5t81 -36.5q12 0 25 1t28 6v264zM397 634q0 -78 -34.5 -116t-120.5 -38t-120.5 38t-34.5 116h90q2 -35 15 -55.5t50 -20.5t50 20.5t15 55.5h90z" />
    <glyph glyph-name="gdotaccent" unicode="&#x121;" horiz-adv-x="479" 
d="M431 423v-433q0 -56 -16.5 -94t-45.5 -62t-69 -34.5t-88 -10.5q-45 0 -82 7t-64 18l31 81q17 -6 45 -12t64 -6q48 0 76.5 20.5t28.5 71.5v36q-20 -7 -43.5 -11t-48.5 -4q-99 0 -143.5 54.5t-44.5 151.5q0 52 10.5 95.5t34.5 75t64 49t100 17.5q29 0 52.5 -7t41.5 -15
l4 12h93zM311 343q-25 7 -49 7q-58 0 -83 -34t-25 -113q0 -58 23 -94.5t81 -36.5q12 0 25 1t28 6v264zM301 512h-122v96h122v-96z" />
    <glyph glyph-name="gcircumflex" unicode="&#x11d;" horiz-adv-x="479" 
d="M431 423v-433q0 -56 -16.5 -94t-45.5 -62t-69 -34.5t-88 -10.5q-45 0 -82 7t-64 18l31 81q17 -6 45 -12t64 -6q48 0 76.5 20.5t28.5 71.5v36q-20 -7 -43.5 -11t-48.5 -4q-99 0 -143.5 54.5t-44.5 151.5q0 52 10.5 95.5t34.5 75t64 49t100 17.5q29 0 52.5 -7t41.5 -15
l4 12h93zM311 343q-25 7 -49 7q-58 0 -83 -34t-25 -113q0 -58 23 -94.5t81 -36.5q12 0 25 1t28 6v264zM328 634l93 -146h-104l-60 86h-10l-64 -86h-101l97 146h149z" />
    <glyph glyph-name="hbar" unicode="&#x127;" horiz-adv-x="475" 
d="M270 478h-284v81h284v-81zM311 0v259q0 16 -1.5 30.5t-7 25.5t-17 17.5t-31.5 6.5q-29 0 -51 -8q-20 -8 -35 -18v-313h-120v626l120 16v-242q16 9 34 15q23 9 46.5 13t44.5 4q41 0 67.5 -10.5t42.5 -29.5t22 -46t6 -61v-285h-120z" />
    <glyph glyph-name="hcircumflex" unicode="&#x125;" horiz-adv-x="475" 
d="M311 0v259q0 16 -1.5 30.5t-7 25.5t-17 17.5t-31.5 6.5q-29 0 -51 -8q-20 -8 -35 -18v-313h-120v626l120 16v-242q16 9 34 15q23 9 46.5 13t44.5 4q41 0 67.5 -10.5t42.5 -29.5t22 -46t6 -61v-285h-120zM188 842l93 -146h-104l-60 86h-10l-64 -86h-101l97 146h149z" />
    <glyph glyph-name="igrave" unicode="&#xec;" horiz-adv-x="218" 
d="M98 634l103 -146h-110l-126 146h133zM169 0h-120v423h120v-423z" />
    <glyph glyph-name="scircumflex" unicode="&#x15d;" horiz-adv-x="412" 
d="M202 271q6 -2 16 -5t21.5 -6.5t22 -7t18.5 -5.5q21 -6 40.5 -15t33.5 -23t22.5 -34t8.5 -49q0 -68 -49 -102t-136 -34q-57 0 -97.5 9t-75.5 23l36 84q26 -14 60 -22t76 -8q34 0 52.5 8.5t18.5 29.5q0 27 -57 45q-19 5 -39.5 11t-36.5 11q-22 7 -41 16.5t-33.5 23.5
t-22.5 33.5t-8 46.5q0 66 49.5 99t134.5 33q54 0 93.5 -8.5t74.5 -22.5l-35 -84q-27 14 -61 22.5t-72 8.5q-34 0 -52.5 -9t-18.5 -26q0 -15 14 -24.5t43 -18.5zM294 634l93 -146h-104l-60 86h-10l-64 -86h-101l97 146h149z" />
    <glyph glyph-name="jcircumflex" unicode="&#x135;" horiz-adv-x="218" 
d="M-17 -119h10q35 0 45.5 17t10.5 61v464h120v-449q0 -51 -10 -85.5t-32 -55.5t-55.5 -29.5t-81.5 -8.5h-7v86zM186 639l83 -146h-99l-55 86h-10l-59 -86h-96l87 146h149z" />
    <glyph glyph-name="ntilde" unicode="&#xf1;" horiz-adv-x="476" 
d="M152 423l3 -30q21 14 46 23q49 17 92 17q41 0 67.5 -10.5t42.5 -29.5t22 -46.5t6 -61.5v-285h-120v259q0 16 -1.5 31t-7 26t-17 17.5t-31.5 6.5q-29 0 -51 -8q-19 -7 -34 -17v-315h-120v309l-8 114h111zM66 568q20 22 50.5 37t65.5 15q20 0 35.5 -4.5t29.5 -10.5
t27.5 -10.5t29.5 -4.5q23 0 43 9t38 22l33 -69q-20 -22 -50.5 -37t-65.5 -15q-20 0 -35.5 4.5t-29.5 10.5t-27.5 10.5t-29.5 4.5q-23 0 -43 -9t-38 -22z" />
    <glyph glyph-name="ograve" unicode="&#xf2;" horiz-adv-x="488" 
d="M234 -10q-59 0 -98 15.5t-62.5 44.5t-33 70t-9.5 93q0 110 53.5 165t168.5 55q59 0 98 -15.5t62.5 -44.5t33.5 -70.5t10 -93.5q0 -110 -54 -164.5t-169 -54.5zM234 71q59 0 80 37t21 109q0 28 -3.5 52.5t-12.5 43t-25 29.5t-41 11q-58 0 -79 -37.5t-21 -109.5
q0 -28 3.5 -52.5t12.5 -43t24.5 -29t40.5 -10.5zM240 634l103 -146h-110l-126 146h133z" />
    <glyph glyph-name="ugrave" unicode="&#xf9;" horiz-adv-x="472" 
d="M423 114l8 -114h-111l-4 29q-21 -13 -46 -22q-47 -17 -90 -17q-41 0 -67 10.5t-41 29.5t-21 46.5t-6 61.5v285h120v-260q0 -17 1.5 -31.5t6.5 -25.5t16 -17.5t31 -6.5q29 0 50 8q18 7 33 17v316h120v-309zM194 634l103 -146h-110l-126 146h133z" />
    <glyph glyph-name="ubreve" unicode="&#x16d;" horiz-adv-x="472" 
d="M423 114l8 -114h-111l-4 29q-21 -13 -46 -22q-47 -17 -90 -17q-41 0 -67 10.5t-41 29.5t-21 46.5t-6 61.5v285h120v-260q0 -17 1.5 -31.5t6.5 -25.5t16 -17.5t31 -6.5q29 0 50 8q18 7 33 17v316h120v-309zM390 634q0 -78 -34.5 -116t-120.5 -38t-120.5 38t-34.5 116h90
q2 -35 15 -55.5t50 -20.5t50 20.5t15 55.5h90z" />
    <glyph glyph-name="Ccircumflex" unicode="&#x108;" horiz-adv-x="563" 
d="M321 -10q-149 0 -214 81t-65 233q0 157 73.5 235.5t210.5 78.5q28 0 57.5 -5t57.5 -15.5t53 -27t43 -38.5l-72 -70q-25 29 -58 44.5t-77 15.5q-162 0 -162 -227q0 -202 161 -202q49 0 92 11.5t81 28.5l28 -94q-39 -22 -96 -35.5t-113 -13.5zM397 819l93 -146h-104l-60 86
h-10l-64 -86h-101l97 146h149z" />
    <glyph glyph-name="Cdotaccent" unicode="&#x10a;" horiz-adv-x="563" 
d="M321 -10q-149 0 -214 81t-65 233q0 157 73.5 235.5t210.5 78.5q28 0 57.5 -5t57.5 -15.5t53 -27t43 -38.5l-72 -70q-25 29 -58 44.5t-77 15.5q-162 0 -162 -227q0 -202 161 -202q49 0 92 11.5t81 28.5l28 -94q-39 -22 -96 -35.5t-113 -13.5zM378 697h-122v96h122v-96z
" />
    <glyph glyph-name="Agrave" unicode="&#xc0;" horiz-adv-x="602" 
d="M463 0l-51 158h-227l-51 -158h-129l218 608h162l212 -608h-134zM296 514l-79 -259h163l-76 259h-8zM280 820l103 -146h-110l-126 146h133z" />
    <glyph glyph-name="Egrave" unicode="&#xc8;" horiz-adv-x="514" 
d="M466 96v-96h-401v608h391v-96h-269v-152h260v-94h-260v-170h279zM231 820l103 -146h-110l-126 146h133z" />
    <glyph glyph-name="Ecircumflex" unicode="&#xca;" horiz-adv-x="514" 
d="M466 96v-96h-401v608h391v-96h-269v-152h260v-94h-260v-170h279zM342 819l93 -146h-104l-60 86h-10l-64 -86h-101l97 146h149z" />
    <glyph glyph-name="Gdotaccent" unicode="&#x120;" horiz-adv-x="622" 
d="M561 31q-44 -20 -100 -30.5t-120 -10.5q-155 0 -227 81.5t-72 232.5q0 156 80.5 235t223.5 79q68 0 126.5 -21t98.5 -69l-74 -66q-26 28 -62.5 45.5t-86.5 17.5q-89 0 -135 -59t-46 -171q0 -104 47 -156.5t134 -52.5q27 0 55 3q20 3 39 8v143h-126v93h245v-302zM397 697
h-122v96h122v-96z" />
    <glyph glyph-name="Gbreve" unicode="&#x11e;" horiz-adv-x="622" 
d="M561 31q-44 -20 -100 -30.5t-120 -10.5q-155 0 -227 81.5t-72 232.5q0 156 80.5 235t223.5 79q68 0 126.5 -21t98.5 -69l-74 -66q-26 28 -62.5 45.5t-86.5 17.5q-89 0 -135 -59t-46 -171q0 -104 47 -156.5t134 -52.5q27 0 55 3q20 3 39 8v143h-126v93h245v-302zM486 818
q0 -78 -34.5 -116t-120.5 -38t-120.5 38t-34.5 116h90q2 -35 15 -55.5t50 -20.5t50 20.5t15 55.5h90z" />
    <glyph glyph-name="Gcircumflex" unicode="&#x11c;" horiz-adv-x="622" 
d="M561 31q-44 -20 -100 -30.5t-120 -10.5q-155 0 -227 81.5t-72 232.5q0 156 80.5 235t223.5 79q68 0 126.5 -21t98.5 -69l-74 -66q-26 28 -62.5 45.5t-86.5 17.5q-89 0 -135 -59t-46 -171q0 -104 47 -156.5t134 -52.5q27 0 55 3q20 3 39 8v143h-126v93h245v-302zM404 819
l93 -146h-104l-60 86h-10l-64 -86h-101l97 146h149z" />
    <glyph glyph-name="Hcircumflex" unicode="&#x124;" horiz-adv-x="625" 
d="M560 608v-608h-122v256h-251v-256h-122v608h122v-255h251v255h122zM393 819l93 -146h-104l-60 86h-10l-64 -86h-101l97 146h149z" />
    <glyph glyph-name="Hbar" unicode="&#x126;" horiz-adv-x="645" 
d="M632 427h-620v88h620v-88zM570 608v-608h-122v256h-251v-256h-122v608h122v-255h251v255h122z" />
    <glyph glyph-name="Igrave" unicode="&#xcc;" horiz-adv-x="252" 
d="M65 608h122v-608h-122v608zM97 820l103 -146h-110l-126 146h133z" />
    <glyph glyph-name="Idotaccent" unicode="&#x130;" horiz-adv-x="252" 
d="M65 608h122v-608h-122v608zM188 697h-122v96h122v-96z" />
    <glyph glyph-name="Jcircumflex" unicode="&#x134;" horiz-adv-x="343" 
d="M156 608h122v-424q0 -101 -43.5 -145t-141.5 -44q-22 0 -48.5 4t-49.5 12l15 89q20 -5 40 -7.5t34 -2.5q34 0 53 19.5t19 64.5v434zM296 819l93 -146h-104l-60 86h-10l-64 -86h-101l97 146h149z" />
    <glyph glyph-name="Ntilde" unicode="&#xd1;" horiz-adv-x="673" 
d="M608 608v-608h-211l-202 514h-8v-514h-122v608h211l202 -514h8v514h122zM171 756q20 22 50.5 37t65.5 15q20 0 35.5 -4.5t29.5 -10.5t27.5 -10.5t29.5 -4.5q23 0 43 9t38 22l33 -69q-20 -22 -50.5 -37t-65.5 -15q-20 0 -35.5 4.5t-29.5 10.5t-27.5 10.5t-29.5 4.5
q-23 0 -43 -9t-38 -22z" />
    <glyph glyph-name="Ograve" unicode="&#xd2;" horiz-adv-x="638" 
d="M42 307q0 156 70.5 233.5t216.5 77.5q74 0 125 -22t82.5 -63t45.5 -100t14 -132q0 -155 -71 -233t-217 -78q-75 0 -125.5 22t-82 63.5t-45 100t-13.5 131.5zM469 313q0 43 -6.5 81.5t-22 67.5t-42.5 46t-68 17q-46 0 -77 -15t-50.5 -44t-28 -71.5t-8.5 -97.5
q0 -44 6.5 -82.5t23 -67t43 -45.5t67.5 -17q47 0 78.5 15t50 44t26.5 71.5t8 97.5zM300 820l103 -146h-110l-126 146h133z" />
    <glyph glyph-name="Scircumflex" unicode="&#x15c;" horiz-adv-x="509" 
d="M312 221q-36 17 -76.5 30.5t-80.5 30.5q-29 13 -50.5 27t-35.5 33t-21.5 43.5t-7.5 58.5q0 81 59.5 127.5t171.5 46.5q48 0 103 -11t98 -35l-42 -90q-29 17 -70.5 28.5t-87.5 11.5q-59 0 -84.5 -18.5t-25.5 -49.5q0 -30 19 -46t39 -24q30 -13 71.5 -27.5t78.5 -31.5
q22 -11 42 -23.5t35 -31t23.5 -44t8.5 -61.5q0 -81 -62.5 -128t-172.5 -47q-50 0 -106.5 12t-107.5 38l45 91q42 -21 82.5 -31.5t84.5 -10.5q64 0 90.5 20t26.5 50q0 13 -5 23.5t-12.5 18t-15.5 12.5t-14 8zM342 819l93 -146h-104l-60 86h-10l-64 -86h-101l97 146h149z" />
    <glyph glyph-name="Ugrave" unicode="&#xd9;" horiz-adv-x="597" 
d="M540 608v-366q0 -67 -16.5 -114.5t-48.5 -78t-78.5 -45t-105.5 -14.5q-118 0 -176 60.5t-58 197.5v360h122v-374q0 -71 25.5 -110.5t85.5 -39.5q70 0 99 37.5t29 127.5v359h122zM270 820l103 -146h-110l-126 146h133z" />
    <glyph glyph-name="Ubreve" unicode="&#x16c;" horiz-adv-x="597" 
d="M540 608v-366q0 -67 -16.5 -114.5t-48.5 -78t-78.5 -45t-105.5 -14.5q-118 0 -176 60.5t-58 197.5v360h122v-374q0 -71 25.5 -110.5t85.5 -39.5q70 0 99 37.5t29 127.5v359h122zM453 818q0 -78 -34.5 -116t-120.5 -38t-120.5 38t-34.5 116h90q2 -35 15 -55.5t50 -20.5
t50 20.5t15 55.5h90z" />
    <glyph glyph-name="onehalf" unicode="&#xbd;" horiz-adv-x="640" 
d="M45 -30l441 668h104l-441 -668h-104zM132 295v237l-63 -29l-26 53l114 54h56v-315h-81zM396 0v42l117 113q17 17 24.5 30t7.5 28q0 17 -10.5 29t-32.5 12q-36 0 -86 -26l-27 55q32 19 65.5 27t59.5 8q52 0 86.5 -20t34.5 -73q0 -31 -21.5 -57.5t-46.5 -49.5l-58 -54h132
v-64h-245z" />
    <glyph glyph-name="Edotaccent" unicode="&#x116;" horiz-adv-x="514" 
d="M466 96v-96h-401v608h391v-96h-269v-152h260v-94h-260v-170h279zM335 697h-122v96h122v-96z" />
    <glyph glyph-name="Uhungarumlaut" unicode="&#x170;" horiz-adv-x="597" 
d="M540 608v-366q0 -67 -16.5 -114.5t-48.5 -78t-78.5 -45t-105.5 -14.5q-118 0 -176 60.5t-58 197.5v360h122v-374q0 -71 25.5 -110.5t85.5 -39.5q70 0 99 37.5t29 127.5v359h122zM354 821l-126 -146h-100l103 146h123zM532 821l-126 -146h-100l103 146h123z" />
    <glyph glyph-name="hungarumlaut" unicode="&#x2dd;" horiz-adv-x="500" 
d="M270 634l-126 -146h-100l103 146h123zM448 634l-126 -146h-100l103 146h123z" />
    <glyph glyph-name="uhungarumlaut" unicode="&#x171;" horiz-adv-x="472" 
d="M423 114l8 -114h-111l-4 29q-21 -13 -46 -22q-47 -17 -90 -17q-41 0 -67 10.5t-41 29.5t-21 46.5t-6 61.5v285h120v-260q0 -17 1.5 -31.5t6.5 -25.5t16 -17.5t31 -6.5q29 0 50 8q18 7 33 17v316h120v-309zM300 634l-126 -146h-100l103 146h123zM478 634l-126 -146h-100
l103 146h123z" />
    <glyph glyph-name="uring" unicode="&#x16f;" horiz-adv-x="472" 
d="M423 114l8 -114h-111l-4 29q-21 -13 -46 -22q-47 -17 -90 -17q-41 0 -67 10.5t-41 29.5t-21 46.5t-6 61.5v285h120v-260q0 -17 1.5 -31.5t6.5 -25.5t16 -17.5t31 -6.5q29 0 50 8q18 7 33 17v316h120v-309zM231 458q-60 0 -84 29t-24 73q0 48 30 75t87 27q60 0 84 -29.5
t24 -73.5q0 -48 -30 -74.5t-87 -26.5zM234 521q41 0 41 39q0 38 -38 38q-42 0 -42 -38q0 -39 39 -39z" />
    <glyph glyph-name="Uring" unicode="&#x16e;" horiz-adv-x="597" 
d="M540 608v-366q0 -67 -16.5 -114.5t-48.5 -78t-78.5 -45t-105.5 -14.5q-118 0 -176 60.5t-58 197.5v360h122v-374q0 -71 25.5 -110.5t85.5 -39.5q70 0 99 37.5t29 127.5v359h122zM297 652q-60 0 -84 29t-24 73q0 48 30 75t87 27q60 0 84 -29.5t24 -73.5q0 -48 -30 -74.5
t-87 -26.5zM300 715q41 0 41 39q0 38 -38 38q-42 0 -42 -38q0 -39 39 -39z" />
    <glyph glyph-name="ohungarumlaut" unicode="&#x151;" horiz-adv-x="488" 
d="M234 -10q-59 0 -98 15.5t-62.5 44.5t-33 70t-9.5 93q0 110 53.5 165t168.5 55q59 0 98 -15.5t62.5 -44.5t33.5 -70.5t10 -93.5q0 -110 -54 -164.5t-169 -54.5zM234 71q59 0 80 37t21 109q0 28 -3.5 52.5t-12.5 43t-25 29.5t-41 11q-58 0 -79 -37.5t-21 -109.5
q0 -28 3.5 -52.5t12.5 -43t24.5 -29t40.5 -10.5zM306 634l-126 -146h-100l103 146h123zM484 634l-126 -146h-100l103 146h123z" />
    <glyph glyph-name="Ohungarumlaut" unicode="&#x150;" horiz-adv-x="638" 
d="M42 307q0 156 70.5 233.5t216.5 77.5q74 0 125 -22t82.5 -63t45.5 -100t14 -132q0 -155 -71 -233t-217 -78q-75 0 -125.5 22t-82 63.5t-45 100t-13.5 131.5zM469 313q0 43 -6.5 81.5t-22 67.5t-42.5 46t-68 17q-46 0 -77 -15t-50.5 -44t-28 -71.5t-8.5 -97.5
q0 -44 6.5 -82.5t23 -67t43 -45.5t67.5 -17q47 0 78.5 15t50 44t26.5 71.5t8 97.5zM379 821l-126 -146h-100l103 146h123zM557 821l-126 -146h-100l103 146h123z" />
    <glyph glyph-name="edotaccent" unicode="&#x117;" horiz-adv-x="459" 
d="M243 -10q-117 0 -164.5 56.5t-47.5 167.5q0 219 210 219q58 0 94.5 -15.5t57 -43.5t28 -65.5t7.5 -82.5v-43h-274q0 -44 17 -71q23 -37 91 -37q50 0 80 11.5t57 23.5l22 -75q-13 -8 -32.5 -15.5t-43.5 -14.5t-50 -11t-52 -4zM304 261q0 45 -15 69.5t-50 24.5
q-28 0 -45 -8.5t-26.5 -25.5t-11.5 -42q-1 -8 -1 -18h149zM299 512h-122v96h122v-96z" />
    <glyph glyph-name="ydieresis" unicode="&#xff;" horiz-adv-x="435" 
d="M0 423h133l87 -286h9l84 286h122l-167 -457q-15 -40 -31 -72.5t-39.5 -56t-55.5 -36t-78 -12.5q-15 0 -31.5 1t-30.5 6l15 80q16 -3 35 -3q31 0 47.5 9.5t25.5 21.5q11 14 22 41.5t21 54.5zM187 512h-117v96h117v-96zM373 512h-117v96h117v-96z" />
    <glyph glyph-name="uni0163" unicode="&#x163;" horiz-adv-x="374" 
d="M202 335v-173q0 -16 1.5 -30.5t7 -25.5t16.5 -17.5t31 -6.5q25 0 46.5 5.5t40.5 15.5l19 -79q-65 -34 -145 -34q-41 0 -67.5 10.5t-41.5 29.5t-21 46t-6 61v198h-72v78l71 8v81l120 21v-100h145v-88h-145zM109 -129q16 -5 29 -7.5t29 -2.5q23 0 36 8t13 26q0 12 -4 20
t-13 13t-24.5 8t-37.5 7l21 56q83 -5 125.5 -26.5t42.5 -76.5q0 -56 -34.5 -81t-109.5 -25q-28 0 -55 5t-44 11z" />
    <glyph glyph-name="uni0162" unicode="&#x162;" horiz-adv-x="490" 
d="M485 608v-96h-179v-512h-122v512h-179v96h480zM136 -129q16 -5 29 -7.5t29 -2.5q23 0 36 8t13 26q0 12 -4 20t-13 13t-24.5 8t-37.5 7l21 56q83 -5 125.5 -26.5t42.5 -76.5q0 -56 -34.5 -81t-109.5 -25q-28 0 -55 5t-44 11z" />
    <glyph glyph-name="mu" unicode="&#xb5;" horiz-adv-x="476" 
d="M165 -205h-120v628h120v-260q0 -16 1.5 -30.5t7 -25.5t16.5 -17.5t31 -6.5q26 0 46.5 6.5t35.5 16.5l4 2v315h120v-309l8 -114h-111l-4 27q-48 -36 -113 -36q-29 0 -50 7z" />
    <glyph glyph-name="trademark" unicode="&#x2122;" horiz-adv-x="706" 
d="M91 295v247h-91v66h272v-66h-90v-247h-91zM305 608h136l19 -78l23 -124h10l23 124l17 78h134v-313h-82v111l6 129h-11l-25 -127l-25 -100h-88l-26 103l-25 124h-11l6 -129v-111h-81v313z" />
    <glyph glyph-name="registered" unicode="&#xae;" horiz-adv-x="478" 
d="M451 450q0 -49 -15.5 -87.5t-44 -64.5t-67.5 -40t-85 -14t-85 14t-67 40t-44 64.5t-16 87.5t16 87t44 64.5t67 40.5t85 14t85 -14t67.5 -40.5t44 -64.5t15.5 -87zM400 450q0 72 -42.5 116.5t-118.5 44.5q-38 0 -67.5 -12t-50.5 -33t-32 -50.5t-11 -65.5q0 -72 43 -116.5
t118 -44.5q76 0 118.5 44.5t42.5 116.5zM275 341l-42 82h-18v-82h-64v221h96q41 0 63.5 -16t22.5 -52q0 -23 -10 -38t-27 -23l48 -92h-69zM245 468q9 0 15.5 6t6.5 20q0 13 -7 17t-15 4h-30v-47h30z" />
    <glyph glyph-name="copyright" unicode="&#xa9;" horiz-adv-x="734" 
d="M692 304q0 -75 -24 -133t-67.5 -98.5t-103 -61.5t-130.5 -21t-130.5 21t-103 61.5t-67.5 98.5t-24 133t24 133t67.5 98.5t103 61.5t130.5 21t130.5 -21t103 -61.5t67.5 -98.5t24 -133zM614 304q0 55 -17 100t-49 77t-77.5 50t-103.5 18t-104 -18t-77.5 -50t-48.5 -77
t-17 -100t17 -100t48.5 -77.5t77.5 -50t104 -17.5t103.5 17.5t77.5 50t49 77.5t17 100zM489 163q-18 -13 -50 -22t-74 -9q-88 0 -127.5 45t-39.5 123q0 90 46 134t135 44q38 0 70 -12.5t49 -32.5l-53 -51q-13 17 -30 23.5t-37 6.5q-43 0 -64 -26t-21 -86q0 -45 20.5 -73.5
t61.5 -28.5q30 0 51.5 6.5t45.5 18.5z" />
    <glyph glyph-name="uni021A" unicode="&#x21a;" horiz-adv-x="490" 
d="M485 608v-96h-179v-512h-122v512h-179v96h480zM212 -293l-71 55q16 23 25.5 44t14.5 43t7 46.5t2 54.5h108q0 -76 -19.5 -134.5t-66.5 -108.5z" />
    <glyph glyph-name="uni021B" unicode="&#x21b;" horiz-adv-x="374" 
d="M202 335v-173q0 -16 1.5 -30.5t7 -25.5t16.5 -17.5t31 -6.5q25 0 46.5 5.5t40.5 15.5l19 -79q-65 -34 -145 -34q-41 0 -67.5 10.5t-41.5 29.5t-21 46t-6 61v198h-72v78l71 8v81l120 21v-100h145v-88h-145zM178 -293l-71 55q16 23 25.5 44t14.5 43t7 46.5t2 54.5h108
q0 -76 -19.5 -134.5t-66.5 -108.5z" />
    <glyph glyph-name="uni0122" unicode="&#x122;" horiz-adv-x="622" 
d="M561 31q-44 -20 -100 -30.5t-120 -10.5q-155 0 -227 81.5t-72 232.5q0 156 80.5 235t223.5 79q68 0 126.5 -21t98.5 -69l-74 -66q-26 28 -62.5 45.5t-86.5 17.5q-89 0 -135 -59t-46 -171q0 -104 47 -156.5t134 -52.5q27 0 55 3q20 3 39 8v143h-126v93h245v-302zM304 -293
l-71 55q16 23 25.5 44t14.5 43t7 46.5t2 54.5h108q0 -76 -19.5 -134.5t-66.5 -108.5z" />
    <glyph glyph-name="uni0136" unicode="&#x136;" horiz-adv-x="561" 
d="M187 0h-122v608h122v-257h45l197 257h137l-233 -295l227 -313h-145l-183 257h-45v-257zM243 -293l-71 55q16 23 25.5 44t14.5 43t7 46.5t2 54.5h108q0 -76 -19.5 -134.5t-66.5 -108.5z" />
    <glyph glyph-name="uni013B" unicode="&#x13b;" horiz-adv-x="441" 
d="M436 96v-96h-371v608h122v-512h249zM198 -293l-71 55q16 23 25.5 44t14.5 43t7 46.5t2 54.5h108q0 -76 -19.5 -134.5t-66.5 -108.5z" />
    <glyph glyph-name="uni013C" unicode="&#x13c;" horiz-adv-x="226" 
d="M216 -3q-5 -1 -10 -1q-5 -1 -11 -1h-10q-39 0 -65.5 9.5t-42 27.5t-22.5 44t-7 59v491l119 16v-504q0 -19 2.5 -30.5t8 -17.5t15 -8t23.5 -2v-83zM90 -293l-71 55q16 23 25.5 44t14.5 43t7 46.5t2 54.5h108q0 -76 -19.5 -134.5t-66.5 -108.5z" />
    <glyph glyph-name="uni0123" unicode="&#x123;" horiz-adv-x="479" 
d="M431 423v-433q0 -56 -16.5 -94t-45.5 -62t-69 -34.5t-88 -10.5q-45 0 -82 7t-64 18l31 81q17 -6 45 -12t64 -6q48 0 76.5 20.5t28.5 71.5v36q-20 -7 -43.5 -11t-48.5 -4q-99 0 -143.5 54.5t-44.5 151.5q0 52 10.5 95.5t34.5 75t64 49t100 17.5q29 0 52.5 -7t41.5 -15
l4 12h93zM311 343q-25 7 -49 7q-58 0 -83 -34t-25 -113q0 -58 23 -94.5t81 -36.5q12 0 25 1t28 6v264zM278.014 715.982l70.9961 -54.9971q-16 -22.998 -25.499 -43.9971t-14.499 -42.9971q-5 -21.999 -7 -46.4971q-1.99902 -24.499 -1.99902 -54.4971h-107.994
q0 75.9951 19.499 134.491q19.499 58.4971 66.4961 108.494z" />
    <glyph glyph-name="uni0137" unicode="&#x137;" horiz-adv-x="445" 
d="M48 0v626l119 16v-369h31l126 150h132l-166 -193l172 -230h-133l-134 184h-28v-184h-119zM195 -293l-71 55q16 23 25.5 44t14.5 43t7 46.5t2 54.5h108q0 -76 -19.5 -134.5t-66.5 -108.5z" />
    <glyph glyph-name="uni0145" unicode="&#x145;" horiz-adv-x="673" 
d="M608 608v-608h-211l-202 514h-8v-514h-122v608h211l202 -514h8v514h122zM290 -293l-71 55q16 23 25.5 44t14.5 43t7 46.5t2 54.5h108q0 -76 -19.5 -134.5t-66.5 -108.5z" />
    <glyph glyph-name="uni0146" unicode="&#x146;" horiz-adv-x="476" 
d="M152 423l3 -30q21 14 46 23q49 17 92 17q41 0 67.5 -10.5t42.5 -29.5t22 -46.5t6 -61.5v-285h-120v259q0 16 -1.5 31t-7 26t-17 17.5t-31.5 6.5q-29 0 -51 -8q-19 -7 -34 -17v-315h-120v309l-8 114h111zM207 -293l-71 55q16 23 25.5 44t14.5 43t7 46.5t2 54.5h108
q0 -76 -19.5 -134.5t-66.5 -108.5z" />
    <glyph glyph-name="uni0157" unicode="&#x157;" horiz-adv-x="348" 
d="M148 423l6 -45q16 20 35 31q41 24 86 24q24 0 42 -4.5t30 -9.5l-28 -94q-22 13 -54 13q-34 0 -65 -17q-16 -8 -30 -24v-297h-120v303l-13 120h111zM79 -293l-71 55q16 23 25.5 44t14.5 43t7 46.5t2 54.5h108q0 -76 -19.5 -134.5t-66.5 -108.5z" />
    <glyph glyph-name="Tbar" unicode="&#x166;" horiz-adv-x="490" 
d="M36 266v94h418v-94h-418zM485 608v-96h-179v-512h-122v512h-179v96h480z" />
    <glyph glyph-name="tbar" unicode="&#x167;" horiz-adv-x="374" 
d="M12 184v84h329v-84h-329zM202 335v-173q0 -16 1.5 -30.5t7 -25.5t16.5 -17.5t31 -6.5q25 0 46.5 5.5t40.5 15.5l19 -79q-65 -34 -145 -34q-41 0 -67.5 10.5t-41.5 29.5t-21 46t-6 61v198h-72v78l71 8v81l120 21v-100h145v-88h-145z" />
    <glyph glyph-name="twosuperior" unicode="&#xb2;" horiz-adv-x="291" 
d="M23 295v42l117 113q17 17 24.5 30t7.5 28q0 17 -10.5 29t-32.5 12q-36 0 -86 -26l-27 55q32 19 65.5 27t59.5 8q52 0 86.5 -20t34.5 -73q0 -31 -21.5 -57.5t-46.5 -49.5l-58 -54h132v-64h-245z" />
    <glyph glyph-name="threesuperior" unicode="&#xb3;" horiz-adv-x="291" 
d="M54 381q16 -12 37 -18.5t42 -6.5q22 0 36.5 9t14.5 28q0 17 -15.5 26.5t-40.5 9.5q-13 0 -20.5 -0.5t-21.5 -2.5v58h30q9 0 19.5 2t19.5 6.5t15 11t6 16.5q0 15 -14 22.5t-30 7.5q-24 0 -42.5 -6.5t-35.5 -18.5l-29 54q18 14 49 24.5t68 10.5q53 0 85 -19t32 -65
q0 -23 -15 -39t-36 -22q27 -8 45 -28t18 -51q0 -50 -39 -75.5t-97 -25.5q-37 0 -67 11t-52 31z" />
    <glyph glyph-name="onesuperior" unicode="&#xb9;" horiz-adv-x="291" 
d="M123 295v236l-63 -29l-26 53l114 54h56v-314h-81z" />
    <glyph glyph-name="uni0156" unicode="&#x156;" horiz-adv-x="551" 
d="M65 0v608h238q103 0 159.5 -42t56.5 -136q0 -41 -12 -72.5t-33.5 -54t-51.5 -37.5q-7 -3 -14 -7l130 -259h-132l-118 240h-102v-240h-121zM298 334q18 0 35.5 5t30.5 16t21 29.5t8 45.5q0 24 -8.5 40t-22.5 25.5t-31 13t-33 3.5h-112v-178h112zM252 -293l-71 55
q16 23 25.5 44t14.5 43t7 46.5t2 54.5h108q0 -76 -19.5 -134.5t-66.5 -108.5z" />
    <glyph glyph-name="Ydieresis" unicode="&#x178;" horiz-adv-x="557" 
d="M339 256v-256h-122v256q-25 39 -53 85t-56.5 92.5t-56 91.5t-51.5 83h140l135 -243h8l134 243h140zM245 683h-117v96h117v-96zM431 683h-117v96h117v-96z" />
    <glyph glyph-name="uni0218" unicode="&#x218;" horiz-adv-x="509" 
d="M312 221q-36 17 -76.5 30.5t-80.5 30.5q-29 13 -50.5 27t-35.5 33t-21.5 43.5t-7.5 58.5q0 81 59.5 127.5t171.5 46.5q48 0 103 -11t98 -35l-42 -90q-29 17 -70.5 28.5t-87.5 11.5q-59 0 -84.5 -18.5t-25.5 -49.5q0 -30 19 -46t39 -24q30 -13 71.5 -27.5t78.5 -31.5
q22 -11 42 -23.5t35 -31t23.5 -44t8.5 -61.5q0 -81 -62.5 -128t-172.5 -47q-50 0 -106.5 12t-107.5 38l45 91q42 -21 82.5 -31.5t84.5 -10.5q64 0 90.5 20t26.5 50q0 13 -5 23.5t-12.5 18t-15.5 12.5t-14 8zM232 -293l-71 55q16 23 25.5 44t14.5 43t7 46.5t2 54.5h108
q0 -76 -19.5 -134.5t-66.5 -108.5z" />
    <glyph glyph-name="uni0219" unicode="&#x219;" horiz-adv-x="412" 
d="M202 271q6 -2 16 -5t21.5 -6.5t22 -7t18.5 -5.5q21 -6 40.5 -15t33.5 -23t22.5 -34t8.5 -49q0 -68 -49 -102t-136 -34q-57 0 -97.5 9t-75.5 23l36 84q26 -14 60 -22t76 -8q34 0 52.5 8.5t18.5 29.5q0 27 -57 45q-19 5 -39.5 11t-36.5 11q-22 7 -41 16.5t-33.5 23.5
t-22.5 33.5t-8 46.5q0 66 49.5 99t134.5 33q54 0 93.5 -8.5t74.5 -22.5l-35 -84q-27 14 -61 22.5t-72 8.5q-34 0 -52.5 -9t-18.5 -26q0 -15 14 -24.5t43 -18.5zM184 -293l-71 55q16 23 25.5 44t14.5 43t7 46.5t2 54.5h108q0 -76 -19.5 -134.5t-66.5 -108.5z" />
    <glyph glyph-name="oe" unicode="&#x153;" horiz-adv-x="763" 
d="M547 -10q-59 0 -98 14q-35 13 -58 38q-24 -24 -60 -37q-40 -15 -97 -15q-59 0 -98 15.5t-62.5 44.5t-33 70t-9.5 93q0 110 53.5 165t168.5 55q94 0 142 -51q47 51 150 51q58 0 94.5 -15.5t57 -43.5t28 -65.5t7.5 -82.5v-43h-274q0 -44 17 -71q23 -37 91 -37q50 0 80 11.5
t57 23.5l22 -75q-13 -8 -32.5 -15.5t-43.5 -14.5t-50 -11t-52 -4zM234 71q59 0 80 37t21 109q0 28 -3.5 52.5t-12.5 43t-25 29.5t-41 11q-58 0 -79 -37.5t-21 -109.5q0 -28 3.5 -52.5t12.5 -43t24.5 -29t40.5 -10.5zM608 261q0 45 -15 69.5t-50 24.5q-28 0 -45 -8.5
t-26.5 -25.5t-11.5 -42q-1 -8 -1 -18h149z" />
    <glyph glyph-name="OE" unicode="&#x152;" horiz-adv-x="917" 
d="M869 96v-96h-391v31q-64 -41 -170 -41q-75 0 -125.5 22t-82 63.5t-45 100t-13.5 131.5q0 156 70.5 233.5t216.5 77.5q74 0 123 -22q14 -6 26 -14v26h381v-96h-269v-152h260v-94h-260v-170h279zM469 313q0 43 -6.5 81.5t-22 67.5t-42.5 46t-68 17q-46 0 -77 -15t-50.5 -44
t-28 -71.5t-8.5 -97.5q0 -44 6.5 -82.5t23 -67t43 -45.5t67.5 -17q47 0 78.5 15t50 44t26.5 71.5t8 97.5z" />
    <glyph glyph-name="sterling" unicode="&#xa3;" horiz-adv-x="462" 
d="M313 618q65 0 116 -20l-33 -84q-19 8 -38 11.5t-39 3.5q-53 0 -75 -23.5t-22 -71.5v-99h172v-88h-172v-2q0 -57 -13 -90.5t-47 -58.5h260v-96h-388v82q37 28 51.5 64t14.5 99v2h-64v88h64v93q0 54 16 90t44 58.5t67 32t86 9.5z" />
    </font>
</defs>
</svg>
